<svg width="10" height="10" viewBox="0 0 10 10" fill="none" xmlns="http://www.w3.org/2000/svg">
<path d="M8.28395 5.80579L9.55128 5.54886C10.1496 5.42753 10.1496 4.57247 9.55128 4.45114L8.28395 4.19421C7.03506 3.94099 6.05901 2.96494 5.80579 1.71606L5.54886 0.448716C5.42753 -0.149572 4.57247 -0.149572 4.45114 0.448716L4.19421 1.71606C3.94099 2.96494 2.96494 3.94099 1.71606 4.19421L0.448716 4.45114C-0.149572 4.57247 -0.149572 5.42753 0.448716 5.54886L1.71606 5.80579C2.96494 6.05901 3.94099 7.03506 4.19421 8.28395L4.45114 9.55128C4.57247 10.1496 5.42753 10.1496 5.54886 9.55128L5.80579 8.28395C6.05896 7.03506 7.03506 6.05905 8.28395 5.80579Z" fill="#FFD15C"/>
</svg>
