<svg width="110" height="125" viewBox="0 0 110 125" fill="none" xmlns="http://www.w3.org/2000/svg">
<ellipse cx="54.917" cy="62.242" rx="27.6474" ry="56.5584" transform="rotate(-34.6801 54.917 62.242)" fill="url(#paint0_linear)"/>
<path d="M20.28 59.04V28H57.72V38.08H30.84V53.28H32.28C33.0267 51.2 34.4133 49.4133 36.44 47.92C38.52 46.3733 41.2933 45.6 44.76 45.6C47.3733 45.6 49.72 46.0533 51.8 46.96C53.88 47.8667 55.64 49.12 57.08 50.72C58.52 52.32 59.6133 54.24 60.36 56.48C61.16 58.72 61.56 61.1733 61.56 63.84V64.32C61.56 67.1467 61.08 69.8133 60.12 72.32C59.2133 74.8267 57.8533 77.04 56.04 78.96C54.28 80.8267 52.0933 82.32 49.48 83.44C46.8667 84.56 43.8533 85.12 40.44 85.12C37.0267 85.12 34.0133 84.6667 31.4 83.76C28.7867 82.8 26.5733 81.4933 24.76 79.84C23 78.1333 21.64 76.1333 20.68 73.84C19.7733 71.4933 19.32 68.96 19.32 66.24V64.32H29.88V65.28C29.88 68.1067 30.7333 70.4533 32.44 72.32C34.2 74.1333 36.76 75.04 40.12 75.04C43.48 75.04 46.12 74.1333 48.04 72.32C50.0133 70.5067 51 68 51 64.8C51 61.76 50.28 59.4933 48.84 58C47.4 56.4533 45.5067 55.68 43.16 55.68C41.6133 55.68 40.36 56.0267 39.4 56.72C38.44 57.36 37.8267 58.1333 37.56 59.04H20.28Z" fill="#40545C"/>
<defs>
<linearGradient id="paint0_linear" x1="83.5504" y1="118.8" x2="13.5664" y2="108.446" gradientUnits="userSpaceOnUse">
<stop stop-color="#E4C9B0"/>
<stop offset="1" stop-color="#E5E5E5"/>
</linearGradient>
</defs>
</svg>
