<svg width="84" height="25" viewBox="0 0 84 25" fill="none" xmlns="http://www.w3.org/2000/svg">
<circle cx="14.6697" cy="6.41674" r="4.01635" stroke="#ABBFC8" stroke-width="1.5"/>
<path d="M6.73975 18.1198C6.73975 13.911 10.1517 10.499 14.3605 10.499V10.499C18.5693 10.499 21.9813 13.911 21.9813 18.1198V19.8672C21.9813 20.0396 21.8415 20.1794 21.669 20.1794H7.05202C6.87956 20.1794 6.73975 20.0396 6.73975 19.8672V18.1198Z" stroke="#ABBFC8" stroke-width="1.5"/>
<path d="M35.6742 7.06418C36.5342 7.06418 37.2192 7.14418 37.7292 7.30418C38.2392 7.45418 38.6042 7.72418 38.8242 8.11418C39.0542 8.50418 39.1692 9.05418 39.1692 9.76418C39.1692 10.5042 39.0292 11.0692 38.7492 11.4592C38.4792 11.8492 38.0292 12.0742 37.3992 12.1342V12.1942C38.1792 12.2642 38.7192 12.5342 39.0192 13.0042C39.3292 13.4742 39.4842 14.1242 39.4842 14.9542C39.4842 15.6642 39.3692 16.2142 39.1392 16.6042C38.9192 16.9942 38.5642 17.2692 38.0742 17.4292C37.5842 17.5792 36.9392 17.6542 36.1392 17.6542C35.5392 17.6542 35.0192 17.6492 34.5792 17.6392C34.1392 17.6392 33.7342 17.6292 33.3642 17.6092C32.9942 17.5892 32.6092 17.5642 32.2092 17.5342V7.18418C32.5692 7.14418 32.9092 7.11918 33.2292 7.10918C33.5592 7.08918 33.9192 7.07918 34.3092 7.07918C34.6992 7.06918 35.1542 7.06418 35.6742 7.06418ZM35.5992 8.29418C35.2192 8.29418 34.8692 8.29418 34.5492 8.29418C34.2292 8.29418 33.9392 8.29418 33.6792 8.29418V11.6242H35.7942C36.2742 11.6242 36.6542 11.5792 36.9342 11.4892C37.2142 11.3892 37.4142 11.2192 37.5342 10.9792C37.6542 10.7392 37.7142 10.3942 37.7142 9.94418C37.7142 9.49418 37.6492 9.14918 37.5192 8.90918C37.3892 8.66918 37.1692 8.50918 36.8592 8.42918C36.5492 8.33918 36.1292 8.29418 35.5992 8.29418ZM35.8092 12.7192H33.6792V16.4092C34.2792 16.4192 35.0192 16.4242 35.8992 16.4242C36.4192 16.4242 36.8292 16.3792 37.1292 16.2892C37.4392 16.1992 37.6542 16.0292 37.7742 15.7792C37.9042 15.5292 37.9692 15.1642 37.9692 14.6842C37.9692 14.1742 37.8992 13.7792 37.7592 13.4992C37.6292 13.2092 37.4042 13.0092 37.0842 12.8992C36.7742 12.7892 36.3492 12.7292 35.8092 12.7192ZM44.6296 10.0342C45.4796 10.0342 46.1596 10.1592 46.6696 10.4092C47.1896 10.6592 47.5646 11.0692 47.7946 11.6392C48.0246 12.1992 48.1396 12.9442 48.1396 13.8742C48.1396 14.8142 48.0246 15.5692 47.7946 16.1392C47.5646 16.6992 47.1896 17.1042 46.6696 17.3542C46.1596 17.6042 45.4796 17.7292 44.6296 17.7292C43.7696 17.7292 43.0796 17.6042 42.5596 17.3542C42.0496 17.1042 41.6796 16.6992 41.4496 16.1392C41.2196 15.5692 41.1046 14.8142 41.1046 13.8742C41.1046 12.9442 41.2196 12.1992 41.4496 11.6392C41.6796 11.0692 42.0496 10.6592 42.5596 10.4092C43.0796 10.1592 43.7696 10.0342 44.6296 10.0342ZM44.6296 11.2042C44.1196 11.2042 43.7196 11.2842 43.4296 11.4442C43.1396 11.6042 42.9296 11.8792 42.7996 12.2692C42.6796 12.6492 42.6196 13.1842 42.6196 13.8742C42.6196 14.5642 42.6796 15.1042 42.7996 15.4942C42.9296 15.8842 43.1396 16.1592 43.4296 16.3192C43.7196 16.4692 44.1196 16.5442 44.6296 16.5442C45.1296 16.5442 45.5246 16.4692 45.8146 16.3192C46.1046 16.1592 46.3096 15.8842 46.4296 15.4942C46.5496 15.1042 46.6096 14.5642 46.6096 13.8742C46.6096 13.1842 46.5496 12.6492 46.4296 12.2692C46.3096 11.8792 46.1046 11.6042 45.8146 11.4442C45.5246 11.2842 45.1296 11.2042 44.6296 11.2042ZM56.6475 10.2142V17.5342H55.3425V12.8692C55.3425 12.7092 55.3475 12.5492 55.3575 12.3892C55.3775 12.2192 55.3925 12.0392 55.4025 11.8492H55.3575C55.2975 11.9992 55.2175 12.1592 55.1175 12.3292C55.0275 12.4892 54.9375 12.6292 54.8475 12.7492L51.2925 17.5342H50.0775V10.2142H51.3825V14.8942C51.3825 15.0642 51.3775 15.2292 51.3675 15.3892C51.3575 15.5392 51.3475 15.7092 51.3375 15.8992H51.3675C51.4375 15.7392 51.5175 15.5842 51.6075 15.4342C51.7075 15.2842 51.8025 15.1492 51.8925 15.0292L55.4475 10.2142H56.6475ZM54.5625 6.95918H55.6125C55.6625 7.54918 55.4775 8.05418 55.0575 8.47418C54.6475 8.88418 54.0775 9.08918 53.3475 9.08918C52.5975 9.08918 52.0125 8.88418 51.5925 8.47418C51.1725 8.05418 50.9875 7.54918 51.0375 6.95918H52.1025C52.0925 7.39918 52.1925 7.73418 52.4025 7.96418C52.6225 8.18418 52.9375 8.29418 53.3475 8.29418C53.7275 8.29418 54.0225 8.18418 54.2325 7.96418C54.4525 7.73418 54.5625 7.39918 54.5625 6.95918ZM64.8498 10.2142V11.3842H62.2398V17.5342H60.7848V11.3842H58.1748V10.2142H64.8498ZM72.9366 10.2142V17.5342H71.6316V12.8692C71.6316 12.7092 71.6366 12.5492 71.6466 12.3892C71.6666 12.2192 71.6816 12.0392 71.6916 11.8492H71.6466C71.5866 11.9992 71.5066 12.1592 71.4066 12.3292C71.3166 12.4892 71.2266 12.6292 71.1366 12.7492L67.5816 17.5342H66.3666V10.2142H67.6716V14.8942C67.6716 15.0642 67.6666 15.2292 67.6566 15.3892C67.6466 15.5392 67.6366 15.7092 67.6266 15.8992H67.6566C67.7266 15.7392 67.8066 15.5842 67.8966 15.4342C67.9966 15.2842 68.0916 15.1492 68.1816 15.0292L71.7366 10.2142H72.9366Z" fill="#ABBFC8"/>
</svg>
