<svg width="183" height="251" viewBox="0 0 183 251" fill="none" xmlns="http://www.w3.org/2000/svg">
<path d="M130.139 6.00707L62.8974 21.4027C60.0243 22.0605 58.2255 24.9094 58.8796 27.7662L86.1176 146.73C86.7716 149.587 89.6309 151.37 92.5042 150.712L177.474 131.257C180.347 130.599 182.146 127.75 181.492 124.893L158.29 23.5559L130.139 6.00707Z" fill="#E1E6E9"/>
<path d="M169.385 72.017L66.207 95.6406L74.3185 131.068L177.497 107.444L169.385 72.017Z" fill="#27A2DB"/>
<path d="M105.769 96.95C108.304 98.3603 109.954 100.751 110.726 104.121C111.497 107.49 111.09 110.391 109.502 112.821C107.913 115.252 105.019 116.948 100.821 117.909L93.5841 119.566L88.6211 97.8896L96.1063 96.1758C100.015 95.2809 103.237 95.5391 105.769 96.95ZM107.036 105.063C105.9 100.101 102.474 98.2751 96.7558 99.5844L93.0754 100.427L96.4763 115.281L100.563 114.345C103.203 113.741 105.082 112.653 106.2 111.08C107.317 109.509 107.595 107.503 107.036 105.063Z" fill="#EBF0F3"/>
<path d="M135.532 106.812C133.819 109.457 131.341 111.15 128.097 111.893C124.853 112.636 121.885 112.189 119.192 110.554C116.496 108.92 114.784 106.505 114.053 103.311C113.321 100.116 113.812 97.198 115.528 94.553C117.241 91.9085 119.72 90.2164 122.964 89.4737C126.208 88.731 129.176 89.176 131.869 90.8116C134.565 92.4466 136.276 94.8607 137.008 98.0555C137.739 101.249 137.248 104.169 135.532 106.812ZM129.731 93.8629C127.893 92.6742 125.893 92.3275 123.731 92.8226C121.568 93.3177 119.918 94.5002 118.781 96.3699C117.647 98.2404 117.328 100.265 117.827 102.447C118.327 104.629 119.495 106.313 121.33 107.503C123.168 108.693 125.168 109.039 127.33 108.544C129.493 108.049 131.143 106.867 132.28 104.996C133.414 103.126 133.733 101.101 133.234 98.9197C132.734 96.7382 131.566 95.0532 129.731 93.8629Z" fill="#EBF0F3"/>
<path d="M153.363 102.387C154.629 102.097 155.672 101.636 156.492 101.003C157.308 100.37 158.11 99.4729 158.897 98.314L161.819 100.191C160.094 103.262 157.583 105.175 154.288 105.929C150.991 106.684 148.016 106.255 145.361 104.644C142.705 103.033 141.008 100.614 140.27 97.3893C139.531 94.1641 140.023 91.2243 141.746 88.5656C143.467 85.9101 146.018 84.1947 149.397 83.4212C152.775 82.6477 155.881 83.2418 158.716 85.2036L156.96 88.2814C155.693 87.5278 154.552 87.0602 153.535 86.8786C152.521 86.6978 151.39 86.7496 150.141 87.0355C147.938 87.54 146.25 88.6727 145.077 90.4313C143.903 92.1898 143.569 94.1707 144.073 96.3726C144.577 98.5744 145.742 100.244 147.568 101.381C149.394 102.519 151.324 102.854 153.363 102.387Z" fill="#EBF0F3"/>
<path d="M74.3184 131.067L83.7737 136.495L82.1219 129.281L74.3184 131.067Z" fill="#2D93BA"/>
<path d="M135.359 28.8069L158.29 23.5567L130.139 6.00781L135.359 28.8069Z" fill="#EBF0F3"/>
<path d="M139.771 27.7969L160.735 34.2396L158.289 23.5568L139.771 27.7969Z" fill="#D5D6DB"/>
<path d="M4.30655 230.875L1.58105 225.348L6.97537 223.587" stroke="#62C7CB"/>
<path d="M116.284 178.867C93.6937 245.24 32.8449 241.075 1.99029 225.546" stroke="#62C7CB"/>
</svg>
