<svg width="89" height="101" viewBox="0 0 89 101" fill="none" xmlns="http://www.w3.org/2000/svg">
<path d="M85.3174 12.3047C65.8338 12.3047 45.9154 1.27754 45.715 1.16875L44.3018 0.390625L42.8885 1.16875C42.6881 1.27754 22.7697 12.3047 3.28613 12.3047H0.356445V15.2344C0.356445 86.9373 41.7412 99.6668 43.5035 100.165L44.3018 100.391L45.1 100.165C46.8623 99.6668 88.2471 86.9373 88.2471 15.2344V12.3047H85.3174Z" fill="#E1F1F8"/>
<path d="M88.2471 15.2344V12.3047H85.3174C65.8338 12.3047 45.9154 1.27754 45.715 1.16875L44.3018 0.390625V100.391L45.1 100.165C46.8623 99.6668 88.2471 86.9373 88.2471 15.2344Z" fill="#ABBFC8"/>
<path d="M44.3014 7.04492C39.4891 9.49395 23.3215 17.2738 6.23828 18.0922C7.21113 78.0879 38.6652 92.2449 44.3014 94.2619C49.9375 92.2449 81.3916 78.0877 82.3645 18.0922C65.2813 17.2738 49.1137 9.49395 44.3014 7.04492Z" fill="#2A819E"/>
<path d="M82.3648 18.0922C65.2816 17.2738 49.1141 9.49395 44.3018 7.04492V94.2619C49.9379 92.2449 81.392 78.0879 82.3648 18.0922Z" fill="#263236"/>
<path d="M44.3018 18.1641C29.7707 18.1641 17.9346 30.0002 17.9346 44.5312C17.9346 59.0623 29.7707 70.8984 44.3018 70.8984C58.8328 70.8984 70.6689 59.0623 70.6689 44.5312C70.6689 30.0002 58.8328 18.1641 44.3018 18.1641Z" fill="#E1F1F8"/>
<path d="M70.6689 44.5312C70.6689 59.0623 58.8328 70.8984 44.3018 70.8984V18.1641C58.8328 18.1641 70.6689 30.0002 70.6689 44.5312Z" fill="#ABBFC8"/>
<path d="M53.9492 36.6006L44.3018 46.2479L41.3721 49.1775L34.6543 42.46L30.5117 46.6025L41.3721 57.4631L44.3018 54.5334L58.0918 40.7432L53.9492 36.6006Z" fill="#2A819E"/>
<path d="M58.0918 40.7432L53.9492 36.6006L44.3018 46.2479V54.5334L58.0918 40.7432Z" fill="#263236"/>
</svg>
