<svg width="100" height="100" viewBox="0 0 100 100" fill="none" xmlns="http://www.w3.org/2000/svg">
<g clip-path="url(#clip0)">
<path d="M61.376 88.1342C40.0787 88.1342 22.752 71.0073 22.752 49.9558C22.752 28.9042 40.0787 11.7773 61.376 11.7773C82.6734 11.7773 100 28.9042 100 49.9558C100 71.0073 82.6734 88.1342 61.376 88.1342Z" fill="#2A819E"/>
<path d="M61.3755 88.1344C61.3755 64.6277 61.3755 21.3494 61.3755 11.7773C82.673 11.7775 99.9997 28.9044 99.9997 49.956C99.9997 71.0075 82.673 88.1344 61.3755 88.1344Z" fill="#263236"/>
<path d="M61.376 17.5693C43.3096 17.5693 28.6113 32.098 28.6113 49.956C28.6113 67.814 43.3094 82.3426 61.376 82.3426C79.4426 82.3426 94.1408 67.814 94.1408 49.956C94.1408 32.098 79.4426 17.5693 61.376 17.5693Z" fill="#F1F1F2"/>
<path d="M61.3755 17.5693C61.3755 24.4718 61.3755 61.5397 61.3755 82.3428C79.4421 82.3426 94.1403 67.814 94.1403 49.956C94.1403 32.098 79.4421 17.5693 61.3755 17.5693Z" fill="#E6E6E6"/>
<path d="M16.8926 35.4766H5.4082V41.2683H16.8926V35.4766Z" fill="#CE935E"/>
<path d="M16.8926 58.6436H5.4082V64.4353H16.8926V58.6436Z" fill="#CE935E"/>
<path d="M16.8926 47.0605H0V52.8523H16.8926V47.0605Z" fill="#CE935E"/>
<path d="M72.5074 64.628L57.4082 54.4571V32.6885H63.2676V51.3953L75.8072 59.8419L72.5074 64.628Z" fill="#4D4D4D"/>
</g>
<defs>
<clipPath id="clip0">
<rect width="100" height="98.8463" fill="white" transform="translate(0 0.533203)"/>
</clipPath>
</defs>
</svg>
