<svg width="130" height="121" viewBox="0 0 130 121" fill="none" xmlns="http://www.w3.org/2000/svg">
<ellipse cx="69.9712" cy="60.1377" rx="27.8027" ry="56.876" transform="rotate(44.6538 69.9712 60.1377)" fill="url(#paint0_linear)"/>
<path d="M17.2142 67.2944V26.4262H15.7661L10.4564 45.734H0.319824V44.7686L7.07756 21.1165H27.8335V67.2944H41.8317V77.431H1.28522V67.2944H17.2142Z" fill="#40545C"/>
<path d="M63.0948 49.2738C63.0948 47.4503 63.7652 45.8681 65.106 44.5273C66.4468 43.1864 68.029 42.516 69.8525 42.516C71.676 42.516 73.2582 43.1864 74.599 44.5273C75.9398 45.8681 76.6103 47.4503 76.6103 49.2738C76.6103 51.0973 75.9398 52.6795 74.599 54.0203C73.2582 55.3611 71.676 56.0315 69.8525 56.0315C68.029 56.0315 66.4468 55.3611 65.106 54.0203C63.7652 52.6795 63.0948 51.0973 63.0948 49.2738ZM49.0966 42.9987C49.0966 35.7047 50.9201 30.0464 54.5671 26.0239C58.2678 22.0015 63.3629 19.9902 69.8525 19.9902C76.3421 19.9902 81.4104 22.0015 85.0574 26.0239C88.7581 30.0464 90.6084 35.7047 90.6084 42.9987V55.5488C90.6084 63.0574 88.7581 68.7693 85.0574 72.6845C81.4104 76.5997 76.3421 78.5573 69.8525 78.5573C63.3629 78.5573 58.2678 76.5997 54.5671 72.6845C50.9201 68.7693 49.0966 63.0574 49.0966 55.5488V42.9987ZM69.8525 68.9034C71.7833 68.9034 73.3923 68.6084 74.6795 68.0185C75.9667 67.3749 77.0125 66.4899 77.817 65.3636C78.6215 64.2373 79.1846 62.8965 79.5064 61.3412C79.8282 59.7858 79.9891 58.0696 79.9891 56.1924V42.3551C79.9891 40.5853 79.8014 38.9226 79.426 37.3673C79.0505 35.8119 78.4606 34.4711 77.6561 33.3448C76.8516 32.2185 75.8058 31.3336 74.5186 30.69C73.2314 29.9928 71.676 29.6441 69.8525 29.6441C68.029 29.6441 66.4736 29.9928 65.1865 30.69C63.8993 31.3336 62.8534 32.2185 62.0489 33.3448C61.2444 34.4711 60.6545 35.8119 60.279 37.3673C59.9036 38.9226 59.7159 40.5853 59.7159 42.3551V56.1924C59.7159 58.0696 59.8768 59.7858 60.1986 61.3412C60.5204 62.8965 61.0835 64.2373 61.888 65.3636C62.6925 66.4899 63.7384 67.3749 65.0256 68.0185C66.3127 68.6084 67.9217 68.9034 69.8525 68.9034Z" fill="#40545C"/>
<defs>
<linearGradient id="paint0_linear" x1="98.7654" y1="117.014" x2="28.3884" y2="106.601" gradientUnits="userSpaceOnUse">
<stop stop-color="#A2CCC7"/>
<stop offset="1" stop-color="#E5E5E5"/>
</linearGradient>
</defs>
</svg>
