<svg width="109" height="54" viewBox="0 0 109 54" fill="none" xmlns="http://www.w3.org/2000/svg">
<g clip-path="url(#clip0)">
<path d="M8.43692 25.7125H10.0391C12.894 25.7125 15.7508 25.7125 18.6056 25.7125C19.6165 25.7125 19.7752 25.8724 19.7865 26.9124C19.7997 28.0703 19.7714 29.2264 19.7865 30.3844C19.8016 31.171 19.4785 31.5005 18.6774 31.4929C15.6544 31.4681 12.6125 31.4929 9.58 31.4929H8.44637C8.44637 32.6356 8.41613 33.7555 8.48415 34.8621C8.48415 35.0069 9.00563 35.2297 9.28715 35.2316C12.7013 35.2602 16.1173 35.2526 19.5315 35.2526C20.9844 35.2526 21.0203 35.2868 21.0222 36.7496C21.0222 38.0256 21.009 39.3017 21.0222 40.5778C21.0222 41.2863 20.7293 41.5987 20.017 41.5967C13.7468 41.5879 7.47648 41.5879 1.2062 41.5967C0.338965 41.5967 0.180256 41.1396 0.182145 40.414C0.182145 35.071 0.182145 29.7292 0.182145 24.3888C0.182145 22.2233 0.204818 20.0558 0.182145 17.8903C0.182145 17.1285 0.490117 16.8409 1.23832 16.8428C7.36122 16.8567 13.4841 16.8567 19.607 16.8428C20.3439 16.8428 20.6915 17.1342 20.6802 17.8979C20.6613 19.1721 20.6519 20.4501 20.6915 21.7242C20.718 22.5775 20.3515 22.886 19.5315 22.8803C16.1475 22.8613 12.7617 22.8937 9.37595 22.8575C8.65231 22.8575 8.35567 23.0308 8.43125 23.7907C8.48226 24.3945 8.43692 25.0078 8.43692 25.7125Z" fill="black"/>
<path d="M74.1634 5.31042L76.1189 4.62858C76.3343 5.41517 76.2682 5.98084 75.4293 6.28557C74.597 6.58995 73.7948 6.97255 73.0336 7.42833L75.7184 6.85695L75.8903 7.06265C75.5389 7.44356 75.2593 7.9978 74.8266 8.16921C73.4719 8.71012 72.0605 9.12151 70.6699 9.55575C70.4311 9.61715 70.1888 9.66421 69.9444 9.69669L69.9916 9.98048L74.5054 9.33101C74.205 10.588 73.6665 11.7441 72.7086 12.5479C71.7507 13.3516 70.6114 13.8811 69.7196 14.4315L70.8211 14.2753L70.8815 14.4277L69.0583 15.2848L69.0998 15.399H70.2694C69.0715 16.7323 67.645 17.4808 66.158 18.0826C63.2144 19.2749 60.1857 20.0672 56.9623 19.8329C56.4239 19.7929 55.8722 19.9415 55.3261 20.0043L55.3375 20.2253L64.5955 20.5643C63.9777 21.8975 63.0405 23.2307 61.5725 23.8535C59.4167 24.762 57.1418 25.3772 54.9048 26.0914C54.3852 26.2552 53.8184 26.2609 53.2724 26.3409L53.2988 26.5942L58.2358 26.1904C57.0379 26.8875 55.8778 27.6322 54.6459 28.255C53.3736 28.9346 52.0531 29.5184 50.6952 30.0015C49.384 30.4377 47.9934 30.63 46.6595 31.0319C48.974 30.75 51.4151 31.1862 53.5142 29.7292C52.3484 31.2243 45.5334 34.0164 43.9463 33.645C44.6794 32.3956 45.3596 31.169 46.104 29.973C50.1511 23.4974 54.9841 17.7188 61.1096 13.1269C64.1477 10.8414 67.3446 8.77106 70.4054 6.52555C72.019 5.3428 73.5116 3.99245 75.0609 2.71637C75.2347 2.57353 75.4218 2.44592 75.5956 2.31641C76.4383 3.21537 76.4156 3.55249 75.5125 4.15815C75.0307 4.48193 74.5451 4.79428 74.0614 5.11044L74.1634 5.31042Z" fill="black"/>
<path d="M68.7484 32.7306C67.9927 32.9515 67.4863 33.0677 67.0007 33.2486C65.4287 33.8391 63.87 34.4619 62.2999 35.0561C61.8011 35.2466 61.5441 35.5418 61.5441 36.1055C61.5347 36.934 61.3987 37.7644 61.4251 38.5815C61.4554 39.4767 61.9919 39.7395 62.7326 39.2367C63.1388 38.9624 63.4279 38.5187 63.8171 38.2101C64.0627 38.0197 64.3934 37.9263 64.6862 37.7911C64.8094 38.1237 64.9153 38.4626 65.0036 38.8062C65.009 38.9566 64.9608 39.1039 64.8676 39.2214C64.006 40.5242 62.8762 41.507 61.3212 41.7984C59.736 42.086 58.6874 41.2136 58.5627 39.5871C58.4966 38.7091 58.5513 37.8235 58.5513 36.7779C52.9946 39.3967 47.2622 40.8346 41.2407 40.8651L41.1387 40.3813C41.535 40.2965 41.9355 40.2329 42.3384 40.1909C47.7969 39.9433 52.9474 38.492 57.9052 36.235C58.5646 35.9341 58.8178 35.5342 58.8725 34.8409C58.9954 33.2791 59.1824 31.7212 59.36 29.9994C58.6666 29.9994 58.0601 30.0337 57.4593 29.9842C57.2118 29.9632 56.8396 29.8147 56.7753 29.6337C56.7111 29.4528 56.8528 29.0624 57.0285 28.8871C57.6879 28.2643 58.1621 27.3063 59.326 27.5006C59.4224 27.5158 59.6019 27.3101 59.668 27.1768C59.7213 27.0073 59.7493 26.8308 59.7511 26.653C59.9722 24.9656 60.2216 24.7066 61.9277 24.3961C62.5172 24.2875 62.7647 24.5866 62.7269 25.1332C62.6778 25.8684 62.5928 26.6035 62.5096 27.4644C62.8875 27.4873 63.2276 27.5253 63.562 27.5273C64.8279 27.5273 66.0938 27.5101 67.3597 27.5406C67.611 27.5406 68.0323 27.7082 68.0701 27.8682C68.1268 28.1139 67.9794 28.47 67.8075 28.6929C67.0687 29.6452 66.1732 30.2165 64.8657 30.0261C64.0344 29.9004 63.1653 30.0013 62.2206 30.0013C62.0637 31.4564 61.9126 32.8487 61.7501 34.3419C63.4902 33.7077 65.0546 33.0087 66.6909 32.5782C68.4348 32.1249 69.7914 31.3574 70.8721 29.828C71.9283 28.3348 73.4549 27.3101 75.3896 27.1901C77.5266 27.0587 78.8642 28.1424 79.2119 30.2756C79.8788 34.3495 77.3678 39.4767 73.6646 41.2422C72.7199 41.6974 71.5032 41.7831 70.4243 41.7412C69.2434 41.6955 68.4726 40.8289 68.1041 39.7033C67.4712 37.7663 67.6639 35.8427 68.3101 33.9438C68.4102 33.6258 68.5387 33.302 68.7484 32.7306ZM76.3797 33.6372C76.3192 33.0487 76.2493 32.4621 76.2021 31.8735C76.1643 31.4279 75.964 31.2393 75.5087 31.3174C74.2636 31.5345 73.0128 31.7155 71.7733 31.963C71.6389 31.9983 71.5138 32.063 71.4071 32.1525C71.3003 32.2421 71.2144 32.3543 71.1555 32.4811C70.566 34.3857 70.413 36.3246 71.1461 38.2292C71.2387 38.4978 71.3899 38.7422 71.5885 38.9443C71.7871 39.1464 72.0281 39.3011 72.2937 39.397C72.5594 39.4929 72.843 39.5276 73.1237 39.4985C73.4044 39.4695 73.6751 39.3774 73.9159 39.2291C74.4413 38.9117 74.8894 38.4795 75.2272 37.9644C76.0887 36.6693 76.34 35.1818 76.3797 33.6372ZM71.813 31.1726L75.6353 30.5841C75.3141 29.7785 74.7189 29.6052 74.0538 29.609C73.0544 29.6147 72.3817 30.1384 71.813 31.1726Z" fill="black"/>
<path d="M62.3736 4.35973L61.5234 7.4623L61.7255 7.5442C62.1204 6.81093 62.5437 6.091 62.9026 5.34059C63.6981 3.67598 64.9375 2.60369 66.6984 2.01327C68.6218 1.36952 70.532 0.731481 72.771 0.50293L71.4692 2.82843L71.6335 2.94842L72.873 1.39047L73.1432 1.60759L72.6141 2.75987L74.3033 1.7333C72.4925 3.64095 70.3868 5.23997 68.0682 6.46811C63.6671 8.74698 59.5396 11.5268 55.7664 14.7531C52.7075 17.389 50.3759 20.7049 48.1238 24.0341C46.121 26.9958 44.3129 30.0907 42.4027 33.1152C42.2515 33.3533 41.9568 33.4962 41.7301 33.6866C41.5902 33.4181 41.3201 33.1419 41.3314 32.8772C41.4126 31.1192 41.5544 29.3632 41.6753 27.6072H42.0532L42.3706 29.4965H42.5123C42.6118 28.5683 42.7113 27.6414 42.8108 26.7158H43.0319V28.2052H43.1188C43.6856 26.0321 44.0502 23.7808 44.8702 21.7105C45.6902 19.6403 47.3945 18.0575 49.0968 16.4082C49.2536 17.5052 49.3916 18.4556 49.5276 19.406L49.794 19.3679C49.7657 18.8518 49.7203 18.3375 49.7128 17.8233C49.6844 15.6749 50.1265 13.6675 51.7174 12.1305C53.4179 10.4963 55.1958 8.96122 56.9473 7.38993C57.1384 7.26222 57.34 7.15134 57.55 7.05853C57.3308 8.03558 57.1438 8.8736 56.9567 9.71162L57.1929 9.89066C57.4744 6.65285 59.7965 5.4682 62.3736 4.35973Z" fill="black"/>
<path d="M33.4504 27.2619C33.7055 24.786 34.2553 22.4319 35.593 20.333C37.1045 17.9485 39.0544 16.1315 41.9791 15.7449C42.6218 15.6735 43.2707 15.6792 43.912 15.762C44.5544 15.8325 44.7055 16.322 44.2899 16.8286C44.082 17.0781 43.8232 17.2838 43.6229 17.539C42.9862 18.3523 42.3003 18.7084 41.1667 18.5275C39.2395 18.2209 37.9547 19.0494 37.4087 20.9654C36.9156 22.6795 36.6529 24.4965 36.4357 26.283C35.9558 30.1683 35.5628 34.0651 35.1452 37.9581C35.1254 38.3273 35.1254 38.6974 35.1452 39.0666L35.4154 39.2228C35.8424 38.6343 36.294 38.061 36.6888 37.4515C36.9477 37.0553 37.1215 36.4878 37.7167 36.7792C38.2835 37.0534 38.2344 37.6172 37.9755 38.0991C37.2538 39.4323 36.379 40.6645 35.0451 41.4645C34.3592 41.8759 33.5997 42.0797 32.8666 41.6549C32.1335 41.2302 32.1429 40.4836 32.1675 39.7503C32.1902 39.1313 32.2412 38.5143 32.2922 37.7124C32.0258 37.9619 31.8747 38.1048 31.7254 38.2457C30.7051 39.179 29.7056 40.137 28.6495 41.0283C28.2552 41.3349 27.8062 41.5625 27.3269 41.6987C25.6642 42.2282 24.4455 41.5083 24.1376 39.7751C23.7714 37.6809 24.0807 35.5235 25.0199 33.6195C26.3425 30.8292 28.2583 28.5971 31.3135 27.6467C31.9483 27.4429 32.6625 27.3972 33.4504 27.2619ZM26.898 36.9125C27.1134 37.5791 27.3281 38.2457 27.5423 38.9123C28.2432 38.6133 28.9461 38.3181 29.6414 38.0057C29.7647 37.9248 29.8749 37.8252 29.9683 37.7105C31.92 35.8402 32.8288 33.5033 33.0876 30.8407C33.1576 30.136 32.8987 29.875 32.296 29.7303C30.8733 29.3856 29.7491 29.8522 28.8951 31.0007C27.5914 32.7281 27.1889 34.7413 26.898 36.9125Z" fill="black"/>
<path d="M103.154 38.1933C102.614 38.8332 102.106 39.5093 101.52 40.0979C101.002 40.6618 100.414 41.156 99.7704 41.5682C98.6141 42.2462 97.5372 41.7777 97.1536 40.4693C96.9842 39.8401 96.8872 39.1933 96.8645 38.5418C96.7228 36.0849 96.6397 33.6242 96.4867 31.1672C96.4545 30.6816 96.1749 30.2149 96.0086 29.7369C95.5986 30.0873 95.1811 30.4283 94.7862 30.7958C94.6615 30.912 94.6313 31.1406 94.499 31.2358C94.2798 31.3939 93.9775 31.6167 93.7792 31.5672C93.6527 31.5105 93.5421 31.4231 93.4573 31.3127C93.3726 31.2024 93.3163 31.0725 93.2936 30.9349C93.2936 30.5425 93.3427 30.0207 93.5902 29.7807C94.4669 28.9274 95.3549 28.0323 96.3922 27.4114C97.4861 26.7581 98.5782 27.3276 98.9485 28.5541C99.1224 29.1821 99.2288 29.827 99.266 30.4778C99.4284 32.7633 99.5342 35.0374 99.7137 37.3134C99.7477 37.7476 100.016 38.1628 100.175 38.5856C100.562 38.3437 101.034 38.1799 101.324 37.8504C103.192 35.7298 104.41 33.1087 104.83 30.3045C104.837 30.2757 104.841 30.2464 104.842 30.2169C104.713 28.2704 105.988 27.659 107.553 27.3124C108.15 27.179 108.477 27.4609 108.346 28.059C107.181 33.3823 106.121 38.7247 104.8 44.0194C103.802 48.0191 101.399 51.0207 97.5391 52.6491C95.8197 53.3709 94.0191 53.6014 92.1826 53.1253C91.2474 52.8796 91.1472 52.4929 91.784 51.7578C91.8277 51.7174 91.8688 51.6741 91.9068 51.6282C92.6436 50.5522 93.4183 50.1712 94.8712 50.5864C97.7998 51.4226 100.078 50.2055 101.091 47.2667C101.964 44.7317 102.433 42.0558 103.071 39.4408C103.168 39.0465 103.22 38.6389 103.294 38.239L103.154 38.1933Z" fill="black"/>
<path d="M83.6386 29.8779C82.7147 30.1312 82.505 30.8968 82.061 31.453C81.8418 31.7311 81.4639 31.8834 81.1578 32.0929C81.0275 31.6834 80.6761 31.1787 80.8008 30.8778C81.1475 30.0419 81.6648 29.289 82.3191 28.6678C82.9734 28.0467 83.75 27.5712 84.5984 27.2724C85.666 26.8705 86.5559 27.6076 86.6352 28.8208C86.6843 29.5713 86.6447 30.3274 86.6447 31.1692C87.0962 30.5978 87.4665 29.9922 87.9672 29.5236C88.7098 28.8227 89.4787 28.099 90.3573 27.619C90.9563 27.2876 91.7649 27.2553 92.481 27.2591C92.891 27.2591 93.2991 27.6 93.7091 27.7866C93.5202 28.1828 93.369 28.5961 93.1423 28.9713C92.9949 29.2208 92.7417 29.4036 92.5755 29.6398C92.0899 30.2912 91.6005 30.655 90.6728 30.3636C89.7981 30.0893 89.1179 30.7578 88.5586 31.3806C87.0238 33.0437 86.0606 35.1606 85.8114 37.4182C85.717 38.2733 85.5771 39.1323 85.5564 39.9836C85.5375 40.7702 85.1785 41.1035 84.4605 41.3169C82.5447 41.8997 82.488 41.8692 82.7185 39.8865C83.0409 37.0931 83.3477 34.2953 83.6386 31.493C83.6821 30.9997 83.6386 30.4988 83.6386 29.8779Z" fill="black"/>
<path d="M42.6821 35.3647L41.8716 35.02C45.3802 28.6701 49.2062 22.6401 54.0601 17.3492C59.1879 11.7573 65.7932 8.25475 72.1322 4.37891C72.1813 4.44938 72.2323 4.51794 72.2814 4.58651C70.7283 5.7026 69.2282 6.9082 67.6108 7.91764C62.1788 11.3059 57.187 15.2141 52.9472 20.0556C49.2589 24.2897 46.0463 28.9219 43.368 33.8677C43.1167 34.34 42.9278 34.8276 42.6821 35.3647Z" fill="black"/>
<path d="M39.9822 40.52C40.0937 39.3449 39.5156 38.1888 40.4603 37.1241C40.8551 36.6765 41.1197 36.7813 41.5032 36.9337C41.8868 37.086 42.1928 37.1736 42.1494 37.7831C42.0455 39.2001 41.0479 39.8058 39.9822 40.52Z" fill="black"/>
<path d="M41.3901 35.3037L42.7467 36.2255C42.6012 36.3703 42.3915 36.6674 42.3216 36.6369C41.869 36.4223 41.4276 36.1845 40.999 35.9246C41.1124 35.7532 41.2182 35.5818 41.3901 35.3037Z" fill="black"/>
</g>
<defs>
<clipPath id="clip0">
<rect width="108.181" height="52.8886" fill="white" transform="translate(0.182129 0.50293)"/>
</clipPath>
</defs>
</svg>
