<svg width="100" height="101" viewBox="0 0 100 101" fill="none" xmlns="http://www.w3.org/2000/svg">
<path d="M72.0929 10.2356C71.5927 9.73149 70.9142 9.44824 70.2068 9.44824H61.0214C60.607 9.44824 60.2097 9.61418 59.9166 9.90943C59.3064 10.5244 59.3064 11.5213 59.9166 12.1363L62.8521 15.0947L40.0617 38.0632L29.7712 27.6924C28.5509 26.4626 26.5722 26.4626 25.3519 27.6924L3.4769 49.7383C2.2564 50.9682 2.2564 52.9623 3.4769 54.1922C4.08706 54.8071 4.88687 55.1147 5.68647 55.1147C6.48608 55.1147 7.28589 54.8071 7.89605 54.1922L27.5615 34.3731L37.8519 44.7439C39.0722 45.9738 41.0509 45.9738 42.2712 44.7439L67.2712 19.5486L70.2068 22.5071C70.8169 23.122 71.8064 23.122 72.4165 22.5071C72.7095 22.2118 72.8742 21.8113 72.8742 21.3936V12.1363C72.8742 11.4235 72.5931 10.7397 72.0929 10.2356Z" fill="#2A819E"/>
<path d="M2.56152 91.333H24.4365V75.5859C24.4365 73.8465 23.0375 72.4365 21.3115 72.4365H5.68652C3.96055 72.4365 2.56152 73.8465 2.56152 75.5859V91.333Z" fill="#8E6139"/>
<path d="M2.56152 91.333H18.1865V75.5859C18.1865 73.8465 16.7875 72.4365 15.0615 72.4365H5.68652C3.96055 72.4365 2.56152 73.8465 2.56152 75.5859V91.333Z" fill="#CE935E"/>
<path d="M24.4365 91.333H46.3115V62.9883C46.3115 61.2488 44.9125 59.8389 43.1865 59.8389H27.5615C25.8355 59.8389 24.4365 61.2488 24.4365 62.9883V91.333Z" fill="#2A819E"/>
<path d="M24.4365 91.333H40.0615V62.9883C40.0615 61.2488 38.6625 59.8389 36.9365 59.8389H27.5615C25.8355 59.8389 24.4365 61.2488 24.4365 62.9883V91.333Z" fill="#7EC3DA"/>
<path d="M46.3115 91.333H68.1865V50.3906C68.1865 48.6512 66.7875 47.2412 65.0615 47.2412H49.4365C47.7105 47.2412 46.3115 48.6512 46.3115 50.3906V91.333Z" fill="#8E6139"/>
<path d="M46.3115 91.333H61.9365V50.3906C61.9365 48.6512 60.5375 47.2412 58.8115 47.2412H49.4365C47.7105 47.2412 46.3115 48.6512 46.3115 50.3906V91.333Z" fill="#CE935E"/>
<path d="M68.1865 91.333H90.0615V66.1377C90.0615 64.3982 88.6625 62.9883 86.9365 62.9883H71.3115C69.5855 62.9883 68.1865 64.3982 68.1865 66.1377V91.333Z" fill="#2A819E"/>
<path d="M68.1865 91.333H83.8115V66.1377C83.8115 64.3982 82.4125 62.9883 80.6865 62.9883H71.3115C69.5855 62.9883 68.1865 64.3982 68.1865 66.1377V91.333Z" fill="#7EC3DA"/>
<path d="M79.1188 21.383C78.8002 20.8191 78.2059 20.4707 77.5618 20.4707C76.9178 20.4707 76.3233 20.8191 76.0047 21.383L57.9801 53.2951C57.5362 54.0809 57.5973 55.0574 58.1358 55.7808C58.5612 56.3526 59.2289 56.689 59.9381 56.689H77.5616H95.185C95.8942 56.689 96.5619 56.3526 96.9873 55.7808C97.5256 55.0574 97.5868 54.0811 97.143 53.2951L79.1188 21.383Z" fill="#263236"/>
<path d="M77.562 44.8785C76.2677 44.8785 75.2183 43.8209 75.2183 42.5164V30.9685C75.2183 29.6641 76.2677 28.6064 77.562 28.6064C78.8563 28.6064 79.9058 29.6641 79.9058 30.9685V42.5164C79.9058 43.8209 78.8563 44.8785 77.562 44.8785Z" fill="white"/>
<path d="M77.562 53.0147C79.2879 53.0147 80.687 51.6046 80.687 49.8652C80.687 48.1259 79.2879 46.7158 77.562 46.7158C75.8361 46.7158 74.437 48.1259 74.437 49.8652C74.437 51.6046 75.8361 53.0147 77.562 53.0147Z" fill="white"/>
</svg>
