<svg width="194" height="195" viewBox="0 0 194 195" fill="none" xmlns="http://www.w3.org/2000/svg">
<path d="M127.313 48.8135V97.3135C127.317 98.1095 127.161 98.8982 126.853 99.6325C126.546 100.367 126.094 101.032 125.524 101.588C125.266 101.846 124.993 102.089 124.706 102.315C123.685 103.004 122.482 103.373 121.25 103.376C119.644 103.371 118.105 102.731 116.969 101.595C115.833 100.459 115.192 98.9199 115.188 97.3135V109.438C115.194 109.601 115.183 109.763 115.157 109.923C115.029 111.438 114.339 112.85 113.223 113.882C112.107 114.914 110.645 115.491 109.125 115.501C108.656 115.497 108.189 115.446 107.731 115.349C106.404 115.028 105.223 114.271 104.377 113.199C103.531 112.128 103.068 110.804 103.063 109.438V118.532C103.066 119.119 102.974 119.703 102.79 120.26C102.505 121.222 101.984 122.097 101.274 122.806C100.565 123.516 99.6897 124.037 98.728 124.322C97.6048 124.686 96.3955 124.686 95.2723 124.322C94.3122 124.033 93.4386 123.511 92.7298 122.803C92.0209 122.094 91.4989 121.22 91.2105 120.26C91.0267 119.703 90.9346 119.119 90.9376 118.532V109.438C90.9419 110.234 90.7857 111.023 90.4784 111.758C90.1711 112.492 89.7191 113.157 89.1492 113.713C88.3592 114.514 87.3623 115.081 86.2695 115.349C85.8109 115.446 85.3438 115.497 84.8751 115.501C83.3531 115.498 81.8878 114.923 80.7702 113.89C79.6527 112.856 78.9647 111.441 78.843 109.923C78.8168 109.763 78.8066 109.601 78.8126 109.438V82.1572C78.8205 82.7866 78.7179 83.4124 78.5095 84.0063C78.2487 84.8647 77.7801 85.6456 77.1455 86.2797C77.1146 86.3372 77.0735 86.3886 77.0242 86.4313C76.4475 87.0174 75.7563 87.4784 74.9936 87.7855C74.2309 88.0927 73.4132 88.2395 72.5913 88.2168C71.7694 88.194 70.961 88.0022 70.2164 87.6533C69.4719 87.3044 68.8073 86.8059 68.2639 86.1888C67.2415 85.0964 66.6773 83.6534 66.6876 82.1572V45.7822L78.8126 33.6572V27.5947H118.219V33.6572L127.313 48.8135Z" fill="#E3B276"/>
<path d="M113.036 107.802C112.983 109.312 112.354 110.744 111.277 111.803L105.579 117.502L102.79 120.261L98.7281 124.322L97.0003 126.081L92.0291 131.022C93.1646 129.918 94.6898 129.308 96.2728 129.324C96.5188 129.309 96.7655 129.34 97.0003 129.415C98.3458 129.521 99.6066 130.114 100.547 131.082C101.111 131.645 101.558 132.314 101.863 133.05C102.168 133.786 102.325 134.575 102.325 135.371C102.325 136.168 102.168 136.957 101.863 137.693C101.558 138.429 101.111 139.098 100.547 139.661L97.0003 143.207L93.9691 146.238L74.8419 165.396H57.685L53.4109 169.67L25.5234 141.813L29.8278 137.508L34.1019 120.382L68.2641 86.1893L68.3853 86.0681C69.5306 84.9314 71.0761 84.2893 72.6897 84.2797C73.4847 84.2819 74.2715 84.441 75.005 84.7479C75.7384 85.0548 76.4041 85.5034 76.9637 86.0681C77.0317 86.1322 77.0927 86.2033 77.1456 86.2803C78.2005 87.4289 78.7705 88.9408 78.7366 90.5C78.7027 92.0591 78.0675 93.5448 76.9637 94.6465L78.8128 92.7975L85.5422 86.0681C86.1062 85.5007 86.7769 85.0506 87.5156 84.7437C88.2544 84.4367 89.0466 84.279 89.8466 84.2797C90.2139 84.275 90.5804 84.3157 90.9378 84.4009C92.3799 84.6628 93.6771 85.4414 94.5866 86.5908C95.496 87.7402 95.9554 89.1816 95.8787 90.6453C95.826 92.1548 95.1968 93.5867 94.1206 94.6465L100.547 88.2203C101.694 87.1089 103.224 86.4797 104.821 86.4622C106.019 86.4612 107.19 86.8152 108.187 87.4794C109.184 88.1436 109.962 89.0882 110.422 90.1941C110.883 91.3 111.005 92.5175 110.775 93.6929C110.544 94.8684 109.97 95.9491 109.125 96.7987L105.579 100.345L103.063 102.861L102.699 103.225C102.813 103.115 102.934 103.014 103.063 102.922C104.068 102.027 105.355 101.512 106.7 101.467C106.799 101.442 106.901 101.432 107.003 101.437C107.823 101.44 108.634 101.609 109.386 101.934C110.139 102.259 110.817 102.734 111.381 103.329C111.945 103.924 112.382 104.627 112.667 105.396C112.951 106.165 113.077 106.983 113.036 107.802Z" fill="#F2C895"/>
<path d="M171.335 138.934C172.116 138.147 173.388 138.146 174.17 138.93L184.193 148.976C184.972 149.758 184.972 151.023 184.191 151.803L152.734 183.26C151.953 184.041 150.687 184.041 149.906 183.26L139.872 173.226C139.095 172.449 139.09 171.19 139.862 170.407L140.59 169.669L168.477 141.812L171.335 138.934Z" fill="#62C7CB"/>
<path d="M122.281 9.40723C123.386 9.40723 124.281 10.3027 124.281 11.4072V25.5947C124.281 26.6993 123.386 27.5947 122.281 27.5947H118.219H78.8125H77.7812C76.6767 27.5947 75.7812 26.6993 75.7812 25.5947V11.4072C75.7812 10.3027 76.6767 9.40723 77.7812 9.40723H122.281Z" fill="#00A1A8"/>
<path d="M53.4105 169.669L54.1382 170.407C54.9098 171.19 54.9053 172.449 54.1282 173.226L44.0941 183.26C43.3131 184.041 42.0468 184.041 41.2657 183.26L9.80903 151.803C9.02863 151.023 9.02789 149.758 9.80737 148.976L19.8298 138.93C20.6125 138.146 21.884 138.147 22.6648 138.934L25.523 141.812L53.4105 169.669Z" fill="#00A1A8"/>
<path d="M168.477 141.813L140.589 169.67L136.315 165.396H119.158L96.9999 143.207L93.4534 139.661C92.8897 139.098 92.4425 138.429 92.1374 137.693C91.8324 136.957 91.6753 136.168 91.6753 135.371C91.6753 134.575 91.8324 133.786 92.1374 133.05C92.4425 132.314 92.8897 131.645 93.4534 131.082C94.3937 130.114 95.6544 129.521 96.9999 129.415C97.2348 129.34 97.4814 129.309 97.7274 129.324C99.3105 129.308 100.836 129.918 101.971 131.022L96.9999 126.081L95.2721 124.322L91.2102 120.261L88.4215 117.502L82.7227 111.803C81.6465 110.744 81.0173 109.312 80.9646 107.802C80.9236 106.983 81.0491 106.165 81.3335 105.396C81.6178 104.627 82.0551 103.924 82.619 103.329C83.1829 102.734 83.8615 102.259 84.614 101.934C85.3665 101.609 86.1771 101.44 86.9968 101.437C87.0988 101.432 87.2009 101.442 87.2999 101.467C88.6452 101.512 89.9322 102.027 90.9374 102.922C91.066 103.014 91.1876 103.115 91.3012 103.225L90.9374 102.861L88.4215 100.345L84.8749 96.7987C84.0304 95.9491 83.4565 94.8684 83.2256 93.6929C82.9948 92.5175 83.1173 91.3 83.5779 90.1941C84.0384 89.0882 84.8162 88.1436 85.8131 87.4794C86.81 86.8152 87.9814 86.4612 89.1793 86.4622C90.7765 86.4797 92.3061 87.1089 93.4534 88.2203L99.8796 94.6465C98.8034 93.5867 98.1742 92.1548 98.1215 90.6453C98.0448 89.1816 98.5042 87.7402 99.4137 86.5908C100.323 85.4414 101.62 84.6628 103.062 84.4009C103.42 84.3157 103.786 84.275 104.154 84.2797C104.954 84.279 105.746 84.4367 106.485 84.7437C107.223 85.0506 107.894 85.5007 108.458 86.0681L115.187 92.7975L117.036 94.6465C116.191 93.7975 115.615 92.7175 115.381 91.5421C115.148 90.3668 115.267 89.1486 115.723 88.0407C116.18 86.9328 116.954 85.9847 117.948 85.3155C118.942 84.6463 120.112 84.2859 121.311 84.2797C122.924 84.2893 124.47 84.9314 125.615 86.0681L127.312 87.7656L159.898 120.382L164.172 137.508L168.477 141.813Z" fill="#FFDAAE"/>
<line x1="97.7658" y1="108.571" x2="116.771" y2="127.576" stroke="#F2C895" stroke-width="2" stroke-linecap="round"/>
<line x1="103.803" y1="98.3135" x2="125.633" y2="120.143" stroke="#F2C895" stroke-width="2" stroke-linecap="round"/>
<line x1="121.222" y1="98.3613" x2="134.191" y2="111.33" stroke="#F2C895" stroke-width="2" stroke-linecap="round"/>
<line x1="103.803" y1="132.479" x2="113.404" y2="142.08" stroke="#F2C895" stroke-width="2" stroke-linecap="round"/>
</svg>
