<svg width="101" height="100" viewBox="0 0 101 100" fill="none" xmlns="http://www.w3.org/2000/svg">
<g clip-path="url(#clip0)">
<path d="M97.8438 96.875H4.09375V3.125H97.8438V96.875Z" fill="#F9F9F9"/>
<path d="M6.33984 1.46484V98.5352C6.33984 99.3443 5.68418 100 4.875 100C4.06582 100 3.41016 99.3443 3.41016 98.5352V1.46484C3.41016 0.655664 4.06582 0 4.875 0C5.68418 0 6.33984 0.655664 6.33984 1.46484ZM97.0625 0C96.2533 0 95.5977 0.655664 95.5977 1.46484V98.5352C95.5977 99.3443 96.2533 100 97.0625 100C97.8717 100 98.5273 99.3443 98.5273 98.5352V1.46484C98.5273 0.655664 97.8717 0 97.0625 0Z" fill="#C1C1C1"/>
<path d="M98.5273 50.0005C98.5273 50.8097 97.8717 51.4653 97.0625 51.4653H95.2068C82.7303 51.4653 70.7258 55.2368 60.4914 62.3716L41.266 75.7741C30.5373 83.2536 17.9535 87.2069 4.875 87.2069C4.06582 87.2069 3.41016 86.5513 3.41016 85.7421C3.41016 84.9329 4.06582 84.2772 4.875 84.2772C17.3514 84.2772 29.3559 80.5058 39.5906 73.3708L58.816 59.9683C69.5445 52.489 82.1281 48.5356 95.2068 48.5356H97.0625C97.8717 48.5356 98.5273 49.1913 98.5273 50.0005Z" fill="#CE935E"/>
<path d="M8.78125 85.3842C8.78125 87.5416 7.03242 89.2904 4.875 89.2904C2.71758 89.2904 0.96875 87.5416 0.96875 85.3842C0.96875 83.2269 2.71758 81.4779 4.875 81.4779C7.03242 81.4779 8.78125 83.2267 8.78125 85.3842ZM97.0625 46.2891C94.9051 46.2891 93.1562 48.0379 93.1562 50.1953C93.1562 52.3527 94.9051 54.1016 97.0625 54.1016C99.2199 54.1016 100.969 52.3527 100.969 50.1953C100.969 48.0379 99.2199 46.2891 97.0625 46.2891Z" fill="#FF904E"/>
<path d="M98.1367 85.3525C98.1367 86.1617 97.4811 86.8174 96.6719 86.8174H94.3281C87.059 86.8174 79.8721 84.9266 73.5439 81.3496C67.216 77.7727 61.8896 72.5898 58.1412 66.3621L38.9428 34.4662C31.875 22.724 18.9707 15.4297 5.26562 15.4297C4.45645 15.4297 3.80078 14.774 3.80078 13.9648C3.80078 13.1557 4.45645 12.5 5.26562 12.5C12.5348 12.5 19.7219 14.3908 26.0498 17.9678C32.3777 21.5447 37.7041 26.7273 41.4527 32.9551L60.6512 64.851C67.7188 76.5932 80.6228 83.8877 94.3281 83.8877H96.6719C97.4811 83.8877 98.1367 84.5434 98.1367 85.3525Z" fill="#2A819E"/>
<path d="M98.5273 13.6719C98.5273 14.4811 97.8717 15.1367 97.0625 15.1367H95.2068C82.7357 15.1367 70.7752 18.9613 60.6182 26.1971L41.1637 40.0562C30.5072 47.6477 17.9588 51.6602 4.875 51.6602C4.06582 51.6602 3.41016 51.0045 3.41016 50.1953C3.41016 49.3861 4.06582 48.7305 4.875 48.7305C17.3461 48.7305 29.3066 44.9059 39.4639 37.6701L58.9184 23.8109C69.5746 16.2195 82.1228 12.207 95.2068 12.207H97.0625C97.8717 12.207 98.5273 12.8627 98.5273 13.6719Z" fill="#CE935E"/>
<path d="M8.78125 50.1953C8.78125 52.3527 7.03242 54.1016 4.875 54.1016C2.71758 54.1016 0.96875 52.3527 0.96875 50.1953C0.96875 48.0379 2.71758 46.2891 4.875 46.2891C7.03242 46.2891 8.78125 48.0379 8.78125 50.1953ZM97.0625 10.0586C94.9051 10.0586 93.1562 11.8076 93.1562 13.9648C93.1562 16.1223 94.9051 17.8711 97.0625 17.8711C99.2199 17.8711 100.969 16.1223 100.969 13.9648C100.969 11.8076 99.2199 10.0586 97.0625 10.0586Z" fill="#412413"/>
<path d="M8.78125 13.9648C8.78125 16.1223 7.03242 17.8711 4.875 17.8711C2.71758 17.8711 0.96875 16.1223 0.96875 13.9648C0.96875 11.8076 2.71758 10.0586 4.875 10.0586C7.03242 10.0586 8.78125 11.8076 8.78125 13.9648ZM97.0625 81.4779C94.9051 81.4779 93.1562 83.2269 93.1562 85.3842C93.1562 87.5416 94.9051 89.2904 97.0625 89.2904C99.2199 89.2904 100.969 87.5416 100.969 85.3842C100.969 83.2268 99.2199 81.4779 97.0625 81.4779Z" fill="#263236"/>
</g>
<defs>
<clipPath id="clip0">
<rect width="100" height="100" fill="white" transform="translate(0.96875)"/>
</clipPath>
</defs>
</svg>
