<svg width="187" height="187" viewBox="0 0 187 187" fill="none" xmlns="http://www.w3.org/2000/svg">
<g clip-path="url(#clip0)">
<path d="M104.787 160.85H82.2119V15.0189C82.2119 12.8546 83.9665 11.0996 86.1312 11.0996H100.868C103.032 11.0996 104.787 12.8542 104.787 15.0189V160.85Z" fill="#E1E1E1"/>
<path d="M100.75 11.0996H89.4629C91.6926 11.0996 93.5006 12.9072 93.5006 15.1373V160.85H104.788V15.1373C104.788 12.9075 102.98 11.0996 100.75 11.0996Z" fill="#C7C7C7"/>
<path d="M133.007 115.7H53.9926C45.6806 115.7 38.9424 108.962 38.9424 100.65C38.9424 92.3378 45.6806 85.5996 53.9926 85.5996H133.007C141.319 85.5996 148.057 92.3378 148.057 100.65C148.057 108.962 141.319 115.7 133.007 115.7Z" fill="#ED7048"/>
<path d="M133.007 85.5986H122.05C130.362 85.5986 137.1 92.3368 137.1 100.649C137.1 108.961 130.362 115.699 122.05 115.699H133.007C141.319 115.699 148.057 108.961 148.057 100.649C148.057 92.3368 141.319 85.5986 133.007 85.5986Z" fill="#E35F35"/>
<path d="M121.084 72.3789L59.9295 59.9701C51.7833 58.317 46.5199 50.3735 48.1726 42.2273C49.8257 34.0812 57.7691 28.8178 65.9153 30.4705L127.07 42.8793C135.216 44.5323 140.479 52.4758 138.827 60.622C137.174 68.7678 129.23 74.0316 121.084 72.3789Z" fill="#FFE177"/>
<path d="M127.07 42.879L65.9151 30.4702C62.1331 29.7028 58.396 30.4282 55.3105 32.2386L115.782 44.5087C123.928 46.1617 129.192 54.1052 127.539 62.2514C126.653 66.6156 123.961 70.1507 120.401 72.2398L121.084 72.3786C129.23 74.0317 137.174 68.7679 138.827 60.6217C140.48 52.4755 135.216 44.532 127.07 42.879Z" fill="#FFD15B"/>
<path d="M154.877 145.8H32.123C23.4213 145.8 16.3672 138.746 16.3672 130.044C16.3672 121.342 23.4213 114.288 32.123 114.288H154.877C163.579 114.288 170.633 121.342 170.633 130.044C170.633 138.746 163.579 145.8 154.877 145.8Z" fill="#62C7CB"/>
<path d="M154.877 114.288H143.92C152.622 114.288 159.676 121.342 159.676 130.044C159.676 138.746 152.622 145.8 143.92 145.8H154.877C163.579 145.8 170.633 138.746 170.633 130.044C170.633 121.342 163.579 114.288 154.877 114.288Z" fill="#00A1A8"/>
<path d="M171.109 175.9H15.891C7.11477 175.9 0 168.786 0 160.009C0 151.233 7.11477 144.118 15.891 144.118H171.109C179.885 144.118 187 151.233 187 160.009C187 168.786 179.885 175.9 171.109 175.9Z" fill="#FFDAAE"/>
<path d="M171.109 144.118H160.153C168.929 144.119 176.043 151.233 176.043 160.009C176.043 168.786 168.929 175.9 160.152 175.9H171.109C179.886 175.9 187 168.785 187 160.009C187 151.233 179.886 144.118 171.109 144.118Z" fill="#F2C895"/>
</g>
<defs>
<clipPath id="clip0">
<rect width="187" height="187" fill="white"/>
</clipPath>
</defs>
</svg>
