<svg width="438" height="385" viewBox="0 0 438 385" fill="none" xmlns="http://www.w3.org/2000/svg">
<g clip-path="url(#clip0)">
<path d="M87.0141 366.31C107.614 351.92 112.294 325.21 111.474 301.19C111.334 297.19 111.774 292.96 109.874 289.44C107.974 285.92 103.514 283.52 99.8741 285.21C96.8741 286.61 95.6041 290.08 93.9341 292.94C91.7144 296.768 88.4551 299.889 84.5341 301.94C81.9841 303.26 78.8341 304.07 76.3141 302.68C72.8541 300.78 72.4441 296 72.4741 292.01C72.5141 284.583 72.5574 277.154 72.6041 269.72C72.6041 265.72 72.6041 261.67 71.4041 257.88C70.2041 254.09 67.4041 250.59 63.6341 249.52C59.8641 248.45 55.1541 250.65 54.3541 254.52C54.0141 256.14 54.3541 257.83 54.2341 259.52C54.1141 261.21 53.3541 263.01 51.7841 263.52C50.2141 264.03 48.5941 262.86 47.4041 261.69C43.2941 257.69 40.5041 252.48 37.8941 247.32C35.2841 242.16 32.7541 236.89 29.0141 232.5C25.2741 228.11 20.1141 224.63 14.4141 224.31C8.7141 223.99 2.6141 227.51 1.1741 233.11C-0.265901 238.71 3.0041 244.43 6.5741 248.98C11.8999 255.708 18.1716 261.629 25.1941 266.56C26.4441 267.46 27.8141 268.42 28.2941 269.9C29.1541 272.55 26.6341 275.19 24.0141 276.07C21.0141 277.07 17.8241 276.75 14.7141 277.07C11.6041 277.39 8.1941 278.9 7.0241 281.79C5.3841 285.9 8.7941 290.13 12.1941 292.9C18.9125 298.496 26.5439 302.893 34.7541 305.9C37.6941 306.98 40.7541 307.9 43.1441 309.98C45.5341 312.06 41.8341 319.33 40.4041 322.14C38.9741 324.95 40.4041 322.14 37.3341 321.57C34.2641 321 31.5141 319.33 28.5841 318.23C23.1141 316.16 16.0341 316.54 12.5241 321.23C10.2241 324.34 10.0141 328.68 11.1841 332.39C12.3541 336.1 14.7141 339.29 17.1841 342.24C25.9641 352.54 37.1841 360.83 49.9141 365.24C62.6441 369.65 74.3941 370.84 87.0241 366.24" fill="#EBEBEB"/>
<path d="M87.3344 384.11C86.2167 372.978 84.0368 361.978 80.8244 351.26C76.8355 338.18 72.1011 325.339 66.6444 312.8L62.4044 302.9C61.0044 299.66 59.6244 296.44 58.0744 293.38C55.0992 287.512 51.8008 281.813 48.1944 276.31C44.7744 271.03 41.3444 266.14 38.1044 261.59C34.8644 257.04 31.7344 252.88 28.7344 249.19C24.017 243.359 18.8441 237.912 13.2644 232.9C11.2644 231.12 9.72437 229.79 8.65437 228.9L7.42437 227.9C7.28998 227.775 7.14247 227.664 6.98438 227.57C7.09979 227.711 7.2306 227.839 7.37437 227.95L8.55437 229.01C9.55437 229.93 11.1344 231.29 13.0744 233.1C18.5505 238.193 23.6412 243.684 28.3044 249.53C31.3044 253.23 34.3044 257.41 37.5744 261.96C40.8444 266.51 44.2044 271.41 47.5744 276.69C51.1617 282.173 54.4466 287.849 57.4144 293.69C58.9544 296.69 60.3244 299.92 61.7144 303.18L65.9444 313.06C71.4088 325.58 76.1663 338.397 80.1944 351.45C83.4277 362.121 85.6508 373.073 86.8344 384.16" fill="#E0E0E0"/>
<path d="M57.864 293.36C58.0581 292.81 58.1889 292.24 58.254 291.66C58.464 290.56 58.714 288.96 58.994 286.97C59.554 282.97 60.144 277.49 60.774 271.42C61.404 265.35 62.074 259.9 62.694 255.9C63.004 253.9 63.264 252.33 63.464 251.22C63.6022 250.654 63.676 250.073 63.684 249.49C63.4606 250.028 63.293 250.588 63.184 251.16C62.904 252.25 62.554 253.84 62.184 255.81C61.434 259.75 60.674 265.25 60.054 271.33C59.434 277.41 58.894 282.76 58.474 286.9C58.274 288.77 58.104 290.34 57.974 291.61C57.872 292.188 57.8351 292.775 57.864 293.36Z" fill="#E0E0E0"/>
<path d="M6.61426 283.78C7.2718 283.925 7.94131 284.009 8.61426 284.03C9.93426 284.14 11.8343 284.3 14.1843 284.58C18.8743 285.08 25.3343 286.01 32.4143 287.34C39.4943 288.67 45.8543 290.18 50.4143 291.4C52.7043 291.99 54.5443 292.51 55.8143 292.87C56.4639 293.097 57.1336 293.261 57.8143 293.36C57.2003 293.043 56.5574 292.785 55.8943 292.59C54.6443 292.15 52.8243 291.59 50.5543 290.89C46.0043 289.54 39.6443 287.97 32.5543 286.61C25.4643 285.25 18.9543 284.43 14.2343 284.05C11.8743 283.85 9.95426 283.77 8.63426 283.74C7.96107 283.693 7.28506 283.707 6.61426 283.78Z" fill="#E0E0E0"/>
<path d="M80.1943 350.31C80.1943 350.31 80.3443 350.11 80.5543 349.69L81.4243 347.83C82.1843 346.22 83.2143 343.83 84.4243 340.92C86.8943 335.05 90.0543 326.83 93.4243 317.72C96.7943 308.61 99.8743 300.36 102.214 294.45L105.014 287.45C105.314 286.69 105.564 286.06 105.764 285.54C105.868 285.325 105.942 285.096 105.984 284.86C105.842 285.051 105.724 285.26 105.634 285.48L104.754 287.33C104.004 288.95 102.974 291.33 101.754 294.25C99.2843 300.12 96.1243 308.34 92.7543 317.46C89.3843 326.58 86.3143 334.81 83.9643 340.72C82.8143 343.6 81.8743 345.96 81.1643 347.72C80.8643 348.48 80.6143 349.11 80.4143 349.63C80.317 349.849 80.2432 350.076 80.1943 350.31Z" fill="#E0E0E0"/>
<path d="M12.084 328.36C12.2958 328.486 12.5249 328.581 12.764 328.64L14.764 329.31L22.064 331.67C28.214 333.67 36.694 336.52 46.064 339.67C55.434 342.82 63.924 345.62 70.134 347.49C73.234 348.43 75.744 349.16 77.494 349.63L79.494 350.16C79.7227 350.239 79.9621 350.283 80.204 350.29C79.9939 350.168 79.7686 350.074 79.534 350.01L77.534 349.35L70.244 346.99C64.084 344.99 55.614 342.14 46.244 338.99C36.874 335.84 28.384 333.04 22.194 331.17C19.094 330.23 16.574 329.5 14.824 329.03L12.824 328.5C12.5832 328.427 12.335 328.38 12.084 328.36Z" fill="#E0E0E0"/>
<path d="M339.394 16.2803L284.354 150.69L383.164 190.38L437.354 56.8403L339.394 16.2803Z" fill="#E6E6E6"/>
<path d="M339.394 16.2803L437.394 56.7303H437.504L437.454 56.8403C422.234 94.3603 403.514 140.53 383.284 190.39L383.234 190.52H383.094L382.374 190.23L284.294 150.82H284.174L284.224 150.7L339.394 16.2803L284.474 150.74L284.404 150.57L382.494 189.95L383.214 190.24L383.024 190.32C403.274 140.47 422.024 94.3203 437.254 56.7903L437.314 56.9403L339.394 16.2803Z" fill="#E6E6E6"/>
<path d="M332.185 3.4502L277.145 137.87L375.955 177.55L430.155 44.0102L332.185 3.4502Z" fill="#FAFAFA"/>
<path d="M332.194 3.4502L430.194 43.9002H430.304V44.0102L376.084 177.6L376.034 177.74L375.904 177.68L375.184 177.39L277.094 137.99L276.974 137.94L277.024 137.81L332.194 3.4502L277.264 137.9L277.194 137.73L375.284 177.12L376.004 177.4L375.824 177.48C396.064 127.63 414.824 81.4802 430.044 43.9502L430.104 44.1102L332.194 3.4502Z" fill="#EBEBEB"/>
<path d="M406.564 64.4404C406.474 64.6704 389.344 58.2004 368.304 49.9904C347.264 41.7804 330.304 34.9904 330.354 34.7404C330.404 34.4904 347.574 40.9804 368.614 49.1904C389.654 57.4004 406.654 64.2204 406.564 64.4404Z" fill="#E0E0E0"/>
<path d="M402.784 76.74C402.694 76.96 385.564 70.49 364.524 62.29C343.484 54.09 326.524 47.29 326.574 47.03C326.624 46.77 343.794 53.28 364.834 61.49C385.874 69.7 402.864 76.52 402.784 76.74Z" fill="#E0E0E0"/>
<path d="M390.004 114C389.924 114.22 372.784 107.75 351.744 99.5502C330.704 91.3502 313.744 84.5502 313.804 84.2902C313.864 84.0302 331.014 90.5402 352.064 98.7402C373.114 106.94 390.094 113.78 390.004 114Z" fill="#E0E0E0"/>
<path d="M383.974 126.59C383.894 126.81 366.754 120.34 345.714 112.14C324.674 103.94 307.714 97.1401 307.774 96.8801C307.834 96.6201 324.984 103.12 346.034 111.33C367.084 119.54 384.064 126.36 383.974 126.59Z" fill="#E0E0E0"/>
<path d="M378.964 139.3C378.874 139.52 361.744 133.05 340.704 124.85C319.664 116.65 302.704 109.85 302.764 109.59C302.824 109.33 319.974 115.84 341.024 124.04C362.074 132.24 379.054 139.08 378.964 139.3Z" fill="#E0E0E0"/>
<path d="M373.954 152.01C373.864 152.23 356.734 145.76 335.694 137.56C314.654 129.36 297.694 122.56 297.754 122.3C297.814 122.04 314.964 128.55 336.014 136.75C357.064 144.95 374.044 151.79 373.954 152.01Z" fill="#E0E0E0"/>
<path d="M343.594 51.3301C343.344 51.8501 342.324 54.2101 342.324 54.2101L384.014 71.1201L385.284 67.5401L343.594 51.3301Z" fill="#EBEBEB"/>
<path d="M322.604 56.5601C322.344 57.0801 320.814 60.2801 320.814 60.2801L398.964 90.0401L400.884 85.9601L322.604 56.5601Z" fill="#EBEBEB"/>
<path d="M318.064 69.2202L316.284 72.9002L394.424 102.66L396.344 98.5802L318.064 69.2202Z" fill="#EBEBEB"/>
<path d="M314.134 82.5C314.054 82.69 312.734 86.5 312.734 86.5L351.844 101.5L354.044 96.91L314.134 82.5Z" fill="#EBEBEB"/>
<path d="M416.314 382.54C416.314 382.69 323.474 382.8 208.994 382.8C94.5136 382.8 1.64355 382.69 1.64355 382.54C1.64355 382.39 94.4636 382.28 208.994 382.28C323.524 382.28 416.314 382.4 416.314 382.54Z" fill="#263238"/>
<path d="M65.1334 11.6904C63.7934 56.9004 59.8634 226.84 58.8234 272.18C58.7534 275.153 59.8624 278.033 61.9083 280.192C63.9542 282.35 66.7709 283.611 69.7434 283.7L255.983 289.39C257.469 289.436 258.95 289.186 260.339 288.657C261.728 288.128 262.999 287.329 264.078 286.307C265.157 285.284 266.023 284.058 266.627 282.7C267.23 281.341 267.559 279.877 267.593 278.39L270.493 147.05L286.263 146.79C288.129 146.759 289.908 146.002 291.225 144.681C292.541 143.359 293.29 141.576 293.313 139.71L294.523 33.9004C294.542 32.0073 293.811 30.1836 292.491 28.8273C291.17 27.4709 289.366 26.692 287.473 26.6604L273.193 26.3804L273.303 16.1504C273.336 13.1926 272.197 10.342 270.137 8.21975C268.077 6.09749 265.261 4.87561 262.303 4.82037L76.5134 0.820375C73.5683 0.771769 70.7226 1.88532 68.5926 3.91985C66.4626 5.95439 65.2198 8.74611 65.1334 11.6904Z" fill="#00A1A8"/>
<path d="M79.2835 13.6304L62.8535 275.31L254.764 286.05L270.254 26.3504L79.2835 13.6304Z" fill="#E0E0E0"/>
<path d="M56.2139 7.95025L57.4939 270.14L249.694 267.9L247.614 7.76025L56.2139 7.95025Z" fill="#EBEBEB"/>
<path d="M31.0537 25.9902L67.3237 285.66L257.514 257.78L220.714 0.240234L31.0537 25.9902Z" fill="#FAFAFA"/>
<path d="M31.0537 25.9902L220.684 -0.00976562H220.894V0.200233C231.244 72.5502 243.984 161.58 257.734 257.73V257.99H257.474L256.094 258.19L67.3637 285.9H67.1237V285.66C45.8037 132.03 31.3737 28.0302 31.1237 25.9602L67.6337 285.6L67.3637 285.39L256.154 257.7L257.544 257.49L257.324 257.79C243.604 161.63 230.894 72.6002 220.574 0.240234L220.814 0.420235L31.0537 25.9902Z" fill="#263238"/>
<path d="M208.764 86.16C208.834 86.59 176.234 92.06 135.954 98.39C95.6741 104.72 62.9541 109.49 62.9541 109.07C62.9541 108.65 95.4841 103.17 135.764 96.84C176.044 90.51 208.694 85.74 208.764 86.16Z" fill="#263238"/>
<path d="M222.694 155.9C222.754 156.32 190.154 161.8 149.884 168.12C109.614 174.44 76.8838 179.23 76.8838 178.8C76.8838 178.37 109.404 172.9 149.694 166.58C189.984 160.26 222.624 155.46 222.694 155.9Z" fill="#263238"/>
<path d="M224.724 181C224.784 181.43 192.184 186.9 151.914 193.22C111.644 199.54 78.9141 204.33 78.9141 203.9C78.9141 203.47 111.434 198 151.724 191.68C192.014 185.36 224.654 180.57 224.724 181Z" fill="#263238"/>
<path d="M201.364 31.0701C201.364 31.4601 179.484 34.8701 152.464 38.6901C125.444 42.5101 103.464 45.2901 103.464 44.9001C103.464 44.5101 125.344 41.0901 152.374 37.2801C179.404 33.4701 201.344 30.6801 201.364 31.0701Z" fill="#263238"/>
<path d="M204.454 44.9701C204.454 45.3601 182.574 48.7801 155.554 52.5901C128.534 56.4001 106.554 59.1901 106.554 58.8001C106.554 58.4101 128.424 55.0001 155.454 51.1801C182.484 47.3601 204.444 44.5801 204.454 44.9701Z" fill="#263238"/>
<path d="M208.193 59.6404C208.193 60.0404 186.313 63.4504 159.283 67.2704C132.253 71.0904 110.343 73.8604 110.283 73.4704C110.223 73.0804 132.193 69.6704 159.193 65.9004C186.193 62.1304 208.193 59.2504 208.193 59.6404Z" fill="#263238"/>
<path d="M228.454 205.38C228.524 205.8 195.924 211.28 155.644 217.6C115.364 223.92 82.6436 228.71 82.6436 228.28C82.6436 227.85 115.174 222.38 155.454 216.06C195.734 209.74 228.384 204.95 228.454 205.38Z" fill="#263238"/>
<path d="M232.194 229.76C232.264 230.18 199.664 235.66 159.394 241.98C119.124 248.3 86.3941 253.09 86.3341 252.66C86.2741 252.23 118.864 246.76 159.154 240.44C199.444 234.12 232.124 229.33 232.194 229.76Z" fill="#263238"/>
<path d="M93.3535 100.3C93.4335 101.3 93.9835 105.96 93.9835 105.96L174.374 94.4404L173.124 87.7104L93.3535 100.3Z" fill="#62C7CB"/>
<path d="M65.3535 127.54C65.4435 128.54 65.9535 134.97 65.9535 134.97L214.884 110.38L214.174 102.28L65.3535 127.54Z" fill="#62C7CB"/>
<path d="M69.7842 151.4C69.8742 152.4 70.3842 158.84 70.3842 158.84L219.314 134.25L218.604 126.14L69.7842 151.4Z" fill="#62C7CB"/>
<path d="M75.7334 175.69C75.7334 176.06 77.1934 183.24 77.1934 183.24L151.823 171.1L151.083 161.93L75.7334 175.69Z" fill="#62C7CB"/>
<path d="M54.0439 43.4805L60.7339 91.6805L104.624 85.5405L98.6439 37.4805L54.0439 43.4805Z" fill="#263238"/>
<mask id="mask0" mask-type="alpha" maskUnits="userSpaceOnUse" x="54" y="37" width="51" height="55">
<path d="M54.0439 43.4805L60.7339 91.6805L104.624 85.5405L98.6439 37.4805L54.0439 43.4805Z" fill="#E8505B"/>
</mask>
<g mask="url(#mask0)">
<path d="M75.9336 83.4003L89.1936 79.8203C88.9836 78.2303 87.7336 72.1903 87.7336 72.1903C87.7336 72.1903 93.1636 70.2803 92.1836 64.6803C91.2036 59.0803 87.8536 46.4403 87.8536 46.4403C84.4302 45.6775 80.8654 45.8405 77.526 46.9127C74.1866 47.9848 71.1931 49.9273 68.8536 52.5403L68.1436 53.3303L75.9336 83.4003Z" fill="#FCD1B1"/>
<path d="M88.3233 56.2804C88.2205 56.2295 88.1295 56.1576 88.0562 56.0692C87.9829 55.9809 87.9289 55.8782 87.8978 55.7677C87.8667 55.6572 87.8592 55.5414 87.8757 55.4278C87.8922 55.3142 87.9323 55.2054 87.9935 55.1083C88.0547 55.0112 88.1356 54.928 88.231 54.8642C88.3264 54.8003 88.4341 54.7572 88.5472 54.7376C88.6603 54.718 88.7763 54.7224 88.8876 54.7504C88.9989 54.7785 89.103 54.8296 89.1933 54.9004C89.2864 54.9558 89.3675 55.0293 89.4317 55.1165C89.4959 55.2038 89.542 55.303 89.5671 55.4084C89.5923 55.5137 89.5961 55.6231 89.5783 55.7299C89.5604 55.8368 89.5214 55.939 89.4633 56.0304C89.3445 56.2138 89.1581 56.3428 88.9447 56.3896C88.7313 56.4365 88.508 56.3972 88.3233 56.2804Z" fill="#263238"/>
<path d="M89.443 54.7505C89.373 54.8705 88.743 54.5505 87.973 54.6905C87.203 54.8305 86.723 55.3305 86.623 55.2505C86.523 55.1705 86.623 55.0205 86.833 54.7905C87.113 54.4876 87.486 54.287 87.893 54.2205C88.2977 54.1538 88.7132 54.2131 89.083 54.3905C89.363 54.5405 89.473 54.7005 89.443 54.7505Z" fill="#263238"/>
<path d="M80.7034 57.0803C80.8048 57.118 80.8977 57.1755 80.9767 57.2493C81.0558 57.3231 81.1194 57.4119 81.164 57.5104C81.2087 57.6089 81.2333 57.7153 81.2367 57.8234C81.24 57.9315 81.2219 58.0392 81.1834 58.1403C81.1447 58.2414 81.0864 58.3339 81.0119 58.4125C80.9375 58.4911 80.8482 58.5542 80.7493 58.5983C80.6504 58.6424 80.5438 58.6666 80.4356 58.6696C80.3273 58.6725 80.2196 58.654 80.1184 58.6153C80.0173 58.5765 79.9248 58.5183 79.8462 58.4438C79.7676 58.3693 79.7045 58.28 79.6604 58.1811C79.6163 58.0823 79.5921 57.9756 79.5892 57.8674C79.5863 57.7592 79.6047 57.6514 79.6434 57.5503C79.7217 57.3474 79.8773 57.1839 80.0761 57.0958C80.2749 57.0076 80.5006 57.0021 80.7034 57.0803Z" fill="#263238"/>
<path d="M81.193 56.9907C81.123 57.1007 80.493 56.7807 79.733 56.9207C78.973 57.0607 78.473 57.5707 78.373 57.4807C78.273 57.3907 78.373 57.2607 78.583 57.0207C78.8743 56.7317 79.2473 56.5393 79.6516 56.4696C80.0559 56.3998 80.4718 56.456 80.843 56.6307C81.133 56.7807 81.253 56.9007 81.193 56.9907Z" fill="#263238"/>
<path d="M85.4832 62.7606C85.8493 62.5289 86.2515 62.3599 86.6732 62.2606C86.8732 62.2006 87.0232 62.1306 87.0232 62.0206C86.988 61.8171 86.8981 61.627 86.7632 61.4706L85.8632 60.0206C85.0469 58.8041 84.3504 57.5114 83.7832 56.1606C84.7289 57.2805 85.5535 58.4973 86.2432 59.7906L87.1132 61.2606C87.2925 61.4922 87.3878 61.7778 87.3832 62.0706C87.3703 62.1543 87.3371 62.2336 87.2866 62.3016C87.236 62.3696 87.1697 62.4242 87.0932 62.4606C86.9882 62.5108 86.8773 62.5477 86.7632 62.5706C86.3503 62.7057 85.9175 62.77 85.4832 62.7606Z" fill="#263238"/>
<path d="M83.193 64.0807C82.303 63.7507 85.623 64.8407 87.193 64.4707C87.0073 64.9227 86.6737 65.2983 86.2469 65.5362C85.8201 65.7742 85.3252 65.8603 84.843 65.7807C82.983 65.4807 83.193 64.0807 83.193 64.0807Z" fill="white"/>
<path d="M87.7032 72.1104C85.1329 72.6428 82.4621 72.3955 80.0332 71.4004C80.0332 71.4004 82.5032 75.1004 88.0332 73.5504L87.7032 72.1104Z" fill="#EB996E"/>
<path d="M69.0632 58.7305C68.9332 58.7305 64.8432 59.2005 66.3932 63.7305C67.9432 68.2605 72.0532 65.2305 72.0232 65.1005C71.9932 64.9705 69.0632 58.7305 69.0632 58.7305Z" fill="#FCD1B1"/>
<path d="M70.0731 64.0207C70.0731 64.0207 70.0131 64.1007 69.8931 64.2107C69.7304 64.3532 69.5194 64.4283 69.3031 64.4207C68.7631 64.4207 68.0931 63.7807 67.7931 62.9607C67.6497 62.571 67.595 62.1542 67.6331 61.7407C67.6288 61.5829 67.6619 61.4264 67.7297 61.2838C67.7975 61.1413 67.898 61.0169 68.0231 60.9207C68.1057 60.8651 68.2052 60.8406 68.3041 60.8516C68.403 60.8626 68.4948 60.9083 68.5631 60.9807C68.6731 61.0907 68.6731 61.1907 68.7031 61.1907C68.7331 61.1907 68.7731 61.0807 68.7031 60.9007C68.6374 60.7978 68.5387 60.7202 68.4231 60.6807C68.3471 60.6488 68.2656 60.6323 68.1831 60.6323C68.1007 60.6323 68.0191 60.6488 67.9431 60.6807C67.7676 60.7831 67.6212 60.9288 67.5179 61.1038C67.4146 61.2789 67.3579 61.4775 67.3531 61.6807C67.2903 62.1427 67.3418 62.6131 67.5031 63.0507C67.6184 63.4678 67.8547 63.8415 68.1822 64.1245C68.5097 64.4075 68.9136 64.5871 69.3431 64.6407C69.4772 64.6349 69.6082 64.5986 69.726 64.5344C69.8439 64.4703 69.9455 64.3801 70.0231 64.2707C70.1031 64.1307 70.0931 64.0207 70.0731 64.0207Z" fill="#EB996E"/>
<path d="M87.7732 46.2805C87.0432 50.3905 81.7732 52.9405 77.7132 53.9305C79.3032 51.9305 78.1932 52.4805 79.1532 51.0905C76.506 54.4118 72.7493 56.6665 68.5732 57.4405C68.0807 56.5526 67.7719 55.5748 67.6651 54.5652C67.5582 53.5555 67.6556 52.5347 67.9514 51.5635C68.2471 50.5922 68.7352 49.6904 69.3866 48.9117C70.0381 48.1329 70.8395 47.4932 71.7432 47.0305C72.9332 46.4205 74.2532 46.1305 75.4832 45.6005C76.4832 45.1505 77.4832 44.5205 78.5432 44.1505C81.7432 43.0505 86.9132 41.1505 87.7732 46.2805Z" fill="#263238"/>
<path d="M70.6934 54.9004C70.5834 55.4804 70.5934 62.0404 70.5934 62.0404L68.0234 56.1904L70.6934 54.9004Z" fill="#263238"/>
<path d="M49.6533 106.75L60.7633 90.3805C62.8751 87.1342 65.722 84.4312 69.0733 82.4905C70.8474 81.4491 72.7743 80.6932 74.7833 80.2505C79.7176 80.8517 84.7173 79.9194 89.1033 77.5805C93.1021 77.2731 97.124 77.6554 100.993 78.7105L122.993 83.1905L119.813 102.49L108.193 100.9L110.713 118.02L117.633 143.02L75.2733 151.38L71.5133 128.21L68.4333 111.52L63.4333 118.62L49.6533 106.75Z" fill="#455A64"/>
</g>
<path d="M289.884 379.06L289.834 369.86L307.054 369.66L307.274 383.11L306.204 383.19C301.454 383.51 282.034 384.49 278.844 383.56C275.294 382.53 289.884 379.06 289.884 379.06Z" fill="#ED7048"/>
<path d="M301.034 383.05C301.272 381.594 302.037 380.277 303.184 379.35C304.307 378.431 305.735 377.967 307.184 378.05L307.244 382.86L301.034 383.05Z" fill="#ED7048"/>
<path d="M282.753 381.01C282.753 381.01 277.643 382.55 278.293 383.39C278.943 384.23 298.613 383.98 307.293 383.11V382.72L284.353 383.21C284.353 383.21 283.763 381.04 282.753 381.01Z" fill="#ED7048"/>
<path d="M307.514 382.71H307.214L306.364 382.78L303.244 382.95C300.594 383.08 296.944 383.21 292.904 383.26C288.864 383.31 285.214 383.26 282.564 383.26L279.434 383.17H278.584H278.284H279.434H282.574C285.214 383.17 288.864 383.17 292.904 383.17C296.944 383.17 300.594 383 303.234 382.91L306.364 382.81H307.214L307.514 382.71Z" fill="#263238"/>
<path d="M284.314 383.48C284.173 382.962 283.972 382.461 283.714 381.99C283.401 381.556 283.038 381.16 282.634 380.81C283.176 381.001 283.626 381.391 283.894 381.9C284.22 382.359 284.369 382.92 284.314 383.48Z" fill="#263238"/>
<path d="M289.364 380.83C289.314 380.83 289.074 380.57 288.814 380.18C288.63 379.956 288.5 379.692 288.434 379.41C288.484 379.41 288.734 379.67 288.984 380.07C289.234 380.47 289.414 380.8 289.364 380.83Z" fill="#263238"/>
<path d="M290.754 380.08C290.754 380.08 290.434 379.94 290.134 379.68C289.834 379.42 289.624 379.17 289.664 379.13C289.704 379.09 289.974 379.26 290.274 379.52C290.574 379.78 290.784 380.04 290.754 380.08Z" fill="#263238"/>
<path d="M291.613 378.44C291.328 378.554 291.02 378.599 290.713 378.57C290.411 378.606 290.105 378.579 289.813 378.49C290.099 378.376 290.407 378.332 290.713 378.36C291.016 378.326 291.322 378.353 291.613 378.44Z" fill="#263238"/>
<path d="M291.903 377.29C291.609 377.492 291.26 377.601 290.903 377.6C290.565 377.659 290.216 377.614 289.903 377.47C290.234 377.413 290.568 377.386 290.903 377.39C291.233 377.33 291.568 377.296 291.903 377.29Z" fill="#263238"/>
<path d="M288.763 379.34C288.396 379.402 288.021 379.402 287.653 379.34C287.254 379.29 286.859 379.207 286.473 379.09C286.237 379.028 286.009 378.937 285.793 378.82C285.661 378.746 285.561 378.625 285.513 378.48C285.497 378.398 285.504 378.314 285.534 378.236C285.565 378.158 285.616 378.09 285.683 378.04C286.101 377.824 286.581 377.761 287.04 377.863C287.499 377.966 287.908 378.227 288.193 378.6C288.368 378.814 288.494 379.063 288.563 379.33C288.585 379.429 288.585 379.532 288.563 379.63C288.443 379.291 288.267 378.973 288.043 378.69C287.787 378.408 287.459 378.2 287.093 378.09C286.877 378.021 286.649 377.995 286.422 378.014C286.196 378.033 285.975 378.096 285.773 378.2C285.593 378.33 285.673 378.54 285.863 378.65C286.064 378.757 286.275 378.845 286.493 378.91C286.865 379.035 287.246 379.129 287.633 379.19C288.343 379.31 288.763 379.31 288.763 379.34Z" fill="#263238"/>
<path d="M288.474 379.4C288.34 379.167 288.29 378.895 288.334 378.63C288.368 378.34 288.471 378.063 288.634 377.82C288.724 377.655 288.855 377.515 289.014 377.413C289.173 377.312 289.355 377.252 289.544 377.24C289.657 377.262 289.758 377.328 289.823 377.423C289.889 377.519 289.914 377.636 289.894 377.75C289.869 377.928 289.808 378.098 289.714 378.25C289.571 378.496 289.396 378.721 289.194 378.92C289.028 379.127 288.811 379.286 288.564 379.38C288.564 379.38 288.784 379.18 289.084 378.82C289.263 378.616 289.418 378.391 289.544 378.15C289.694 377.92 289.794 377.5 289.544 377.45C289.294 377.4 288.984 377.71 288.814 377.93C288.663 378.146 288.56 378.391 288.514 378.65C288.479 378.899 288.466 379.15 288.474 379.4Z" fill="#263238"/>
<path d="M307.104 378C307.104 378 306.604 378 305.834 378.06C304.82 378.186 303.863 378.595 303.072 379.241C302.282 379.886 301.689 380.742 301.364 381.71C301.114 382.46 301.094 382.95 301.054 382.95C301.037 382.834 301.037 382.716 301.054 382.6C301.085 382.285 301.146 381.974 301.234 381.67C301.529 380.653 302.126 379.749 302.945 379.078C303.765 378.407 304.768 377.999 305.824 377.91C306.139 377.878 306.458 377.878 306.774 377.91C306.887 377.925 306.998 377.955 307.104 378Z" fill="#263238"/>
<path d="M305.193 370.9C305.4 373.251 305.46 375.612 305.373 377.97C305.18 375.619 305.12 373.258 305.193 370.9Z" fill="#263238"/>
<path d="M298.844 381.4C297.197 381.732 295.504 381.769 293.844 381.51C293.844 381.45 294.974 381.51 296.364 381.51C297.754 381.51 298.834 381.34 298.844 381.4Z" fill="#263238"/>
<path d="M302.194 381.35C302.194 381.35 302.104 381.59 301.994 381.85C301.884 382.11 301.824 382.34 301.764 382.33C301.704 382.32 301.674 382.06 301.764 381.76C301.854 381.46 302.194 381.31 302.194 381.35Z" fill="#263238"/>
<path d="M303.464 379.75C303.514 379.75 303.404 379.97 303.224 380.15C303.044 380.33 302.874 380.45 302.834 380.41C302.794 380.37 302.894 380.19 303.074 380.01C303.254 379.83 303.424 379.71 303.464 379.75Z" fill="#263238"/>
<path d="M305.273 379C305.273 379.06 305.033 379.06 304.783 379.15C304.533 379.24 304.353 379.38 304.303 379.34C304.253 379.3 304.403 379.07 304.713 378.96C305.023 378.85 305.293 378.95 305.273 379Z" fill="#263238"/>
<path d="M306.573 378.64C306.573 378.7 306.493 378.79 306.353 378.84C306.213 378.89 306.073 378.91 306.053 378.84C306.033 378.77 306.133 378.7 306.273 378.64C306.413 378.58 306.543 378.59 306.573 378.64Z" fill="#263238"/>
<path d="M377.904 374.31L375.094 365.55L358.664 370.7L362.664 383.55L363.664 383.3C368.284 382.13 387.044 377.03 389.794 375.16C392.854 373.08 377.904 374.31 377.904 374.31Z" fill="#ED7048"/>
<path d="M368.544 381.56C367.871 380.247 366.734 379.231 365.354 378.71C363.997 378.18 362.491 378.18 361.134 378.71L362.574 383.3L368.544 381.56Z" fill="#ED7048"/>
<path d="M385.283 373.95C385.283 373.95 390.623 373.83 390.283 374.83C389.943 375.83 371.153 381.69 362.643 383.55L362.563 383.18L384.513 376.52C384.513 376.52 384.343 374.29 385.283 373.95Z" fill="#ED7048"/>
<path d="M362.273 383.25L362.573 383.19L363.393 382.98L366.393 382.18C368.943 381.48 372.463 380.47 376.313 379.27C380.163 378.07 383.633 376.9 386.133 376.03L389.083 374.97L389.883 374.67C389.978 374.641 390.069 374.601 390.153 374.55L389.863 374.63L389.053 374.89L386.053 375.89C383.543 376.73 380.053 377.89 376.223 379.07C372.393 380.25 368.863 381.3 366.323 382.07L363.323 382.94L362.513 383.18C362.432 383.198 362.352 383.221 362.273 383.25Z" fill="#263238"/>
<path d="M384.564 376.78C384.546 376.244 384.587 375.708 384.684 375.18C384.846 374.669 385.067 374.179 385.344 373.72C384.886 374.064 384.576 374.567 384.474 375.13C384.308 375.674 384.34 376.258 384.564 376.78Z" fill="#263238"/>
<path d="M378.944 375.83C379.004 375.83 379.144 375.49 379.274 375.04C379.404 374.59 379.444 374.21 379.384 374.19C379.223 374.431 379.114 374.704 379.064 374.99C378.962 375.257 378.921 375.544 378.944 375.83Z" fill="#263238"/>
<path d="M377.394 375.55C377.444 375.55 377.654 375.32 377.854 374.98C378.054 374.64 378.184 374.33 378.134 374.3C378.084 374.27 377.884 374.53 377.674 374.87C377.464 375.21 377.344 375.52 377.394 375.55Z" fill="#263238"/>
<path d="M376.074 374.26C376.379 374.268 376.682 374.214 376.964 374.1C377.262 374.038 377.545 373.915 377.794 373.74C377.489 373.718 377.183 373.773 376.904 373.9C376.424 374.04 376.054 374.2 376.074 374.26Z" fill="#263238"/>
<path d="M375.443 373.25C375.768 373.356 376.118 373.356 376.443 373.25C376.797 373.202 377.128 373.049 377.393 372.81C377.053 372.859 376.719 372.939 376.393 373.05C376.072 373.091 375.754 373.157 375.443 373.25Z" fill="#263238"/>
<path d="M379.054 374.22C379.425 374.179 379.785 374.067 380.114 373.89C380.481 373.721 380.832 373.52 381.164 373.29C381.367 373.154 381.555 372.997 381.724 372.82C381.824 372.707 381.881 372.561 381.884 372.41C381.875 372.326 381.841 372.247 381.788 372.181C381.735 372.115 381.664 372.066 381.584 372.04C381.119 371.962 380.641 372.05 380.235 372.29C379.828 372.529 379.52 372.905 379.364 373.35C379.27 373.613 379.229 373.891 379.244 374.17C379.239 374.27 379.26 374.37 379.304 374.46C379.307 374.101 379.375 373.745 379.504 373.41C379.655 373.057 379.905 372.755 380.224 372.54C380.408 372.406 380.617 372.31 380.838 372.256C381.059 372.203 381.289 372.194 381.514 372.23C381.714 372.31 381.714 372.52 381.564 372.69C381.407 372.855 381.233 373.003 381.044 373.13C380.727 373.364 380.392 373.575 380.044 373.76C379.454 374.07 379.044 374.19 379.054 374.22Z" fill="#263238"/>
<path d="M379.344 374.19C379.405 373.93 379.37 373.656 379.244 373.42C379.128 373.152 378.945 372.918 378.714 372.74C378.582 372.617 378.422 372.528 378.247 372.481C378.073 372.434 377.89 372.43 377.714 372.47C377.664 372.497 377.619 372.534 377.583 372.579C377.548 372.623 377.521 372.674 377.505 372.729C377.489 372.784 377.485 372.842 377.491 372.899C377.498 372.955 377.516 373.01 377.544 373.06C377.617 373.223 377.727 373.366 377.864 373.48C378.078 373.667 378.313 373.828 378.564 373.96C378.785 374.104 379.04 374.186 379.304 374.2C379.304 374.2 379.034 374.08 378.634 373.83C378.405 373.688 378.191 373.524 377.994 373.34C377.784 373.16 377.554 372.79 377.804 372.66C377.952 372.633 378.105 372.639 378.25 372.679C378.396 372.719 378.53 372.791 378.644 372.89C378.855 373.047 379.029 373.249 379.154 373.48C379.245 373.708 379.309 373.947 379.344 374.19Z" fill="#263238"/>
<path d="M361.193 378.64C361.193 378.64 361.653 378.45 362.423 378.31C363.425 378.112 364.463 378.202 365.415 378.57C366.367 378.938 367.196 379.57 367.803 380.39C368.273 381.02 368.443 381.49 368.483 381.47C368.466 381.356 368.432 381.245 368.383 381.14C368.259 380.849 368.105 380.57 367.923 380.31C367.326 379.436 366.478 378.763 365.491 378.379C364.504 377.996 363.424 377.919 362.393 378.16C362.084 378.235 361.783 378.339 361.493 378.47C361.385 378.511 361.284 378.568 361.193 378.64Z" fill="#263238"/>
<path d="M360.773 371.27C361.3 373.569 361.968 375.833 362.773 378.05C362.529 376.894 362.222 375.753 361.853 374.63C361.561 373.489 361.201 372.367 360.773 371.27Z" fill="#263238"/>
<path d="M370.113 379.31C370.958 379.243 371.791 379.071 372.593 378.8C373.411 378.584 374.197 378.265 374.933 377.85C374.933 377.8 373.853 378.2 372.533 378.6C371.213 379 370.103 379.25 370.113 379.31Z" fill="#263238"/>
<path d="M366.894 380.31C366.894 380.31 367.054 380.51 367.234 380.72C367.414 380.93 367.554 381.13 367.604 381.11C367.654 381.09 367.604 380.83 367.394 380.58C367.184 380.33 366.914 380.26 366.894 380.31Z" fill="#263238"/>
<path d="M365.193 379.18C365.193 379.23 365.323 379.37 365.553 379.49C365.783 379.61 365.983 379.66 366.003 379.61C366.023 379.56 365.873 379.42 365.653 379.3C365.433 379.18 365.193 379.13 365.193 379.18Z" fill="#263238"/>
<path d="M363.254 379.03C363.254 379.08 363.494 379.03 363.764 379.03C364.034 379.03 364.254 379.12 364.284 379.03C364.314 378.94 364.104 378.8 363.774 378.79C363.444 378.78 363.194 378.98 363.254 379.03Z" fill="#263238"/>
<path d="M361.914 379.09C361.914 379.15 362.034 379.2 362.184 379.21C362.334 379.22 362.464 379.21 362.464 379.13C362.464 379.05 362.354 379.02 362.194 379.01C362.034 379 361.914 379.03 361.914 379.09Z" fill="#263238"/>
<path d="M278.164 196.45L286.204 375.1L313.024 375.66L308.574 226.1L357.174 377.44L379.094 371.44L330.184 196.45" fill="#263238"/>
<path d="M356.023 376.43L357.273 378.83L380.503 372.06L379.093 368.16L356.023 376.43Z" fill="#455A64"/>
<path d="M376.413 367.27C376.553 367.27 376.763 367.52 376.883 367.91C377.003 368.3 376.983 368.67 376.883 368.71C376.783 368.75 376.543 368.46 376.423 368.06C376.303 367.66 376.273 367.31 376.413 367.27Z" fill="#455A64"/>
<path d="M374.674 361.47C374.814 361.47 375.124 362.04 375.364 362.84C375.604 363.64 375.684 364.33 375.544 364.37C375.404 364.41 375.104 363.8 374.864 362.99C374.624 362.18 374.534 361.51 374.674 361.47Z" fill="#455A64"/>
<path d="M372.934 355.67C373.074 355.67 373.384 356.24 373.624 357.04C373.864 357.84 373.944 358.53 373.804 358.57C373.664 358.61 373.364 357.99 373.124 357.19C372.884 356.39 372.794 355.71 372.934 355.67Z" fill="#455A64"/>
<path d="M371.193 349.9C371.333 349.9 371.643 350.47 371.883 351.27C372.123 352.07 372.203 352.76 372.063 352.8C371.923 352.84 371.623 352.22 371.383 351.42C371.143 350.62 371.053 349.9 371.193 349.9Z" fill="#455A64"/>
<path d="M369.454 344.07C369.594 344.07 369.904 344.64 370.144 345.44C370.384 346.24 370.464 346.93 370.324 346.97C370.184 347.01 369.884 346.39 369.644 345.59C369.404 344.79 369.324 344.11 369.454 344.07Z" fill="#455A64"/>
<path d="M367.713 338.27C367.853 338.22 368.163 338.84 368.403 339.64C368.643 340.44 368.723 341.12 368.583 341.17C368.443 341.22 368.143 340.59 367.903 339.79C367.663 338.99 367.583 338.31 367.713 338.27Z" fill="#455A64"/>
<path d="M365.974 332.46C366.114 332.46 366.424 333.04 366.664 333.84C366.904 334.64 366.984 335.32 366.844 335.37C366.704 335.42 366.404 334.79 366.164 333.99C365.924 333.19 365.844 332.51 365.974 332.46Z" fill="#455A64"/>
<path d="M364.194 326.66C364.334 326.66 364.644 327.24 364.884 328.04C365.124 328.84 365.204 329.52 365.064 329.56C364.924 329.6 364.624 328.99 364.384 328.19C364.144 327.39 364.104 326.71 364.194 326.66Z" fill="#455A64"/>
<path d="M362.494 320.9C362.634 320.9 362.944 321.48 363.184 322.28C363.424 323.08 363.504 323.76 363.364 323.8C363.224 323.84 362.924 323.23 362.684 322.43C362.444 321.63 362.364 320.9 362.494 320.9Z" fill="#455A64"/>
<path d="M360.753 315.06C360.893 315.06 361.203 315.64 361.443 316.44C361.683 317.24 361.763 317.92 361.623 317.96C361.483 318 361.183 317.39 360.943 316.59C360.703 315.79 360.623 315.1 360.753 315.06Z" fill="#455A64"/>
<path d="M359.024 309.26C359.154 309.26 359.464 309.84 359.704 310.64C359.944 311.44 360.024 312.12 359.894 312.16C359.764 312.2 359.444 311.59 359.204 310.79C358.964 309.99 358.884 309.3 359.024 309.26Z" fill="#455A64"/>
<path d="M357.284 303.46C357.414 303.46 357.724 304.03 357.964 304.84C358.204 305.65 358.284 306.32 358.154 306.36C358.024 306.4 357.704 305.79 357.464 304.99C357.224 304.19 357.194 303.5 357.284 303.46Z" fill="#455A64"/>
<path d="M355.544 297.66C355.674 297.66 355.983 298.23 356.223 299.03C356.463 299.83 356.543 300.52 356.413 300.56C356.283 300.6 355.963 299.99 355.723 299.18C355.483 298.37 355.404 297.7 355.544 297.66Z" fill="#455A64"/>
<path d="M353.803 291.9C353.933 291.9 354.243 292.47 354.483 293.27C354.723 294.07 354.803 294.76 354.673 294.8C354.543 294.84 354.223 294.22 353.983 293.42C353.743 292.62 353.663 291.9 353.803 291.9Z" fill="#455A64"/>
<path d="M352.064 286.06C352.194 286.06 352.504 286.63 352.744 287.43C352.984 288.23 353.064 288.92 352.934 288.96C352.804 289 352.484 288.38 352.244 287.58C352.004 286.78 351.924 286.1 352.064 286.06Z" fill="#455A64"/>
<path d="M350.323 280.26C350.463 280.26 350.763 280.83 351.003 281.63C351.243 282.43 351.333 283.12 351.193 283.16C351.053 283.2 350.743 282.58 350.503 281.78C350.263 280.98 350.193 280.3 350.323 280.26Z" fill="#455A64"/>
<path d="M348.584 274.46C348.724 274.41 349.024 275.03 349.264 275.83C349.504 276.63 349.594 277.31 349.454 277.36C349.314 277.41 349.004 276.78 348.764 275.98C348.524 275.18 348.444 274.5 348.584 274.46Z" fill="#455A64"/>
<path d="M346.843 268.65C346.983 268.65 347.283 269.23 347.523 270.03C347.763 270.83 347.853 271.51 347.713 271.56C347.573 271.61 347.263 270.98 347.023 270.18C346.783 269.38 346.703 268.7 346.843 268.65Z" fill="#455A64"/>
<path d="M345.104 262.9C345.244 262.9 345.544 263.48 345.784 264.28C346.024 265.08 346.114 265.76 345.974 265.8C345.834 265.84 345.524 265.23 345.284 264.43C345.044 263.63 344.964 262.9 345.104 262.9Z" fill="#455A64"/>
<path d="M343.363 257.05C343.503 257.05 343.803 257.63 344.043 258.43C344.283 259.23 344.373 259.91 344.233 259.95C344.093 259.99 343.783 259.38 343.543 258.58C343.303 257.78 343.193 257.09 343.363 257.05Z" fill="#455A64"/>
<path d="M341.624 251.25C341.764 251.25 342.064 251.83 342.304 252.63C342.544 253.43 342.634 254.11 342.494 254.15C342.354 254.19 342.054 253.58 341.804 252.78C341.554 251.98 341.484 251.29 341.624 251.25Z" fill="#455A64"/>
<path d="M339.884 245.45C340.024 245.45 340.324 246.03 340.564 246.83C340.804 247.63 340.894 248.31 340.754 248.35C340.614 248.39 340.314 247.78 340.074 246.98C339.834 246.18 339.744 245.49 339.884 245.45Z" fill="#455A64"/>
<path d="M338.194 239.65C338.334 239.65 338.634 240.22 338.874 241.03C339.114 241.84 339.204 242.51 339.064 242.55C338.924 242.59 338.624 241.98 338.384 241.18C338.144 240.38 338.004 239.69 338.194 239.65Z" fill="#455A64"/>
<path d="M336.403 233.9C336.543 233.9 336.843 234.47 337.093 235.27C337.343 236.07 337.413 236.76 337.273 236.8C337.133 236.84 336.833 236.23 336.593 235.42C336.353 234.61 336.263 233.9 336.403 233.9Z" fill="#455A64"/>
<path d="M334.664 228.05C334.804 228.05 335.114 228.62 335.354 229.42C335.594 230.22 335.674 230.91 335.534 230.95C335.394 230.99 335.094 230.37 334.854 229.57C334.614 228.77 334.524 228.09 334.664 228.05Z" fill="#455A64"/>
<path d="M332.924 222.25C333.064 222.25 333.374 222.82 333.614 223.62C333.854 224.42 333.934 225.11 333.794 225.15C333.654 225.19 333.354 224.57 333.114 223.77C332.874 222.97 332.784 222.29 332.924 222.25Z" fill="#455A64"/>
<path d="M331.194 216.45C331.334 216.45 331.644 217.02 331.884 217.82C332.124 218.62 332.204 219.31 332.064 219.35C331.924 219.39 331.624 218.77 331.384 217.97C331.144 217.17 331.044 216.49 331.194 216.45Z" fill="#455A64"/>
<path d="M329.443 210.65C329.583 210.6 329.893 211.22 330.133 212.02C330.373 212.82 330.453 213.5 330.313 213.55C330.173 213.6 329.873 212.97 329.633 212.17C329.393 211.37 329.303 210.69 329.443 210.65Z" fill="#455A64"/>
<path d="M327.704 204.84C327.844 204.84 328.154 205.42 328.394 206.22C328.634 207.02 328.714 207.7 328.574 207.75C328.434 207.8 328.134 207.17 327.894 206.37C327.654 205.57 327.574 204.9 327.704 204.84Z" fill="#455A64"/>
<path d="M326.404 200.51C326.544 200.51 326.754 200.75 326.874 201.15C326.994 201.55 326.974 201.9 326.874 201.94C326.774 201.98 326.534 201.7 326.414 201.3C326.294 200.9 326.264 200.55 326.404 200.51Z" fill="#455A64"/>
<path d="M308.403 374.2C308.543 374.2 308.673 374.52 308.703 374.93C308.733 375.34 308.623 375.69 308.473 375.7C308.323 375.71 308.203 375.38 308.183 374.96C308.163 374.54 308.253 374.21 308.403 374.2Z" fill="#455A64"/>
<path d="M308.193 368.25C308.333 368.25 308.484 368.9 308.514 369.73C308.544 370.56 308.453 371.22 308.303 371.22C308.153 371.22 308.023 370.57 307.993 369.75C307.963 368.93 308.013 368.25 308.193 368.25Z" fill="#455A64"/>
<path d="M307.974 362.3C308.114 362.3 308.254 362.95 308.274 363.78C308.294 364.61 308.204 365.27 308.054 365.27C307.904 365.27 307.774 364.61 307.754 363.79C307.734 362.97 307.824 362.3 307.974 362.3Z" fill="#455A64"/>
<path d="M307.823 356.34C307.963 356.34 308.093 357 308.113 357.82C308.133 358.64 308.033 359.31 307.893 359.32C307.753 359.33 307.613 358.66 307.593 357.84C307.573 357.02 307.673 356.34 307.823 356.34Z" fill="#455A64"/>
<path d="M307.674 350.38C307.824 350.38 307.954 351.04 307.974 351.87C307.994 352.7 307.894 353.36 307.754 353.36C307.614 353.36 307.474 352.7 307.454 351.88C307.434 351.06 307.534 350.39 307.674 350.38Z" fill="#455A64"/>
<path d="M307.523 344.42C307.663 344.42 307.803 345.08 307.823 345.91C307.843 346.74 307.743 347.4 307.603 347.4C307.463 347.4 307.323 346.74 307.303 345.92C307.283 345.1 307.383 344.43 307.523 344.42Z" fill="#455A64"/>
<path d="M307.324 338.47C307.474 338.47 307.614 339.12 307.644 339.95C307.674 340.78 307.574 341.44 307.434 341.45C307.294 341.46 307.144 340.79 307.124 339.97C307.104 339.15 307.194 338.47 307.324 338.47Z" fill="#455A64"/>
<path d="M307.074 332.52C307.224 332.52 307.364 333.17 307.404 333.99C307.444 334.81 307.344 335.49 307.204 335.49C307.064 335.49 306.914 334.84 306.874 334.01C306.834 333.18 306.934 332.52 307.074 332.52Z" fill="#455A64"/>
<path d="M306.843 326.56C306.983 326.56 307.133 327.22 307.163 328.04C307.193 328.86 307.103 329.53 306.953 329.54C306.803 329.55 306.673 328.88 306.643 328.06C306.613 327.24 306.703 326.57 306.843 326.56Z" fill="#455A64"/>
<path d="M306.633 320.61C306.783 320.61 306.923 321.27 306.943 322.09C306.963 322.91 306.883 323.58 306.733 323.59C306.583 323.6 306.453 322.93 306.423 322.11C306.393 321.29 306.493 320.62 306.633 320.61Z" fill="#455A64"/>
<path d="M306.453 314.65C306.593 314.65 306.733 315.31 306.753 316.13C306.773 316.95 306.683 317.62 306.543 317.63C306.403 317.64 306.263 316.97 306.233 316.15C306.203 315.33 306.313 314.66 306.453 314.65Z" fill="#455A64"/>
<path d="M306.294 308.7C306.444 308.7 306.574 309.36 306.594 310.18C306.614 311 306.514 311.67 306.374 311.67C306.234 311.67 306.094 311.01 306.074 310.19C306.054 309.37 306.194 308.7 306.294 308.7Z" fill="#455A64"/>
<path d="M306.194 302.74C306.334 302.74 306.464 303.4 306.484 304.23C306.504 305.06 306.394 305.72 306.254 305.72C306.114 305.72 305.974 305.06 305.964 304.24C305.954 303.42 306.024 302.74 306.194 302.74Z" fill="#455A64"/>
<path d="M306.074 296.79C306.214 296.79 306.344 297.45 306.354 298.27C306.364 299.09 306.264 299.76 306.114 299.76C305.964 299.76 305.844 299.1 305.834 298.28C305.824 297.46 305.924 296.79 306.074 296.79Z" fill="#455A64"/>
<path d="M305.994 290.83C306.144 290.83 306.264 291.49 306.274 292.32C306.284 293.15 306.174 293.81 306.034 293.81C305.894 293.81 305.764 293.14 305.754 292.32C305.744 291.5 305.854 290.83 305.994 290.83Z" fill="#455A64"/>
<path d="M305.954 284.9C306.104 284.9 306.224 285.57 306.224 286.39C306.224 287.21 306.114 287.88 305.974 287.88C305.834 287.88 305.714 287.22 305.704 286.39C305.694 285.56 305.814 284.9 305.954 284.9Z" fill="#455A64"/>
<path d="M305.944 278.9C306.084 278.9 306.204 279.56 306.204 280.39C306.204 281.22 306.094 281.87 305.944 281.88C305.794 281.89 305.684 281.21 305.684 280.39C305.684 279.57 305.804 278.9 305.944 278.9Z" fill="#455A64"/>
<path d="M305.963 272.96C306.103 272.96 306.213 273.63 306.213 274.45C306.213 275.27 306.093 275.94 305.943 275.94C305.793 275.94 305.693 275.27 305.693 274.45C305.693 273.63 305.813 272.96 305.963 272.96Z" fill="#455A64"/>
<path d="M306.004 267C306.154 267 306.264 267.67 306.254 268.49C306.244 269.31 306.124 269.98 305.984 269.98C305.844 269.98 305.724 269.31 305.734 268.49C305.744 267.67 305.864 267 306.004 267Z" fill="#455A64"/>
<path d="M306.083 261.05C306.223 261.05 306.333 261.72 306.323 262.54C306.313 263.36 306.183 264.03 306.043 264.03C305.903 264.03 305.793 263.36 305.803 262.53C305.813 261.7 305.943 261.05 306.083 261.05Z" fill="#455A64"/>
<path d="M306.194 255.09C306.334 255.09 306.434 255.77 306.424 256.59C306.414 257.41 306.274 258.07 306.134 258.07C305.994 258.07 305.884 257.4 305.904 256.58C305.924 255.76 306.044 255.09 306.194 255.09Z" fill="#455A64"/>
<path d="M306.324 249.13C306.464 249.13 306.564 249.81 306.544 250.63C306.524 251.45 306.394 252.12 306.254 252.11C306.114 252.1 306.004 251.44 306.024 250.62C306.044 249.8 306.194 249.13 306.324 249.13Z" fill="#455A64"/>
<path d="M306.533 243.17C306.673 243.17 306.763 243.85 306.733 244.67C306.703 245.49 306.563 246.16 306.413 246.15C306.263 246.14 306.183 245.48 306.213 244.65C306.243 243.82 306.393 243.17 306.533 243.17Z" fill="#455A64"/>
<path d="M306.884 237.23C307.024 237.23 307.094 237.91 307.044 238.73C306.994 239.55 306.834 240.21 306.684 240.2C306.534 240.19 306.474 239.52 306.524 238.69C306.574 237.86 306.734 237.21 306.884 237.23Z" fill="#455A64"/>
<path d="M307.424 231.29C307.574 231.29 307.614 231.98 307.534 232.8C307.454 233.62 307.264 234.27 307.124 234.26C306.984 234.25 306.934 233.57 307.014 232.75C307.094 231.93 307.284 231.28 307.424 231.29Z" fill="#455A64"/>
<path d="M308.003 226.9C308.143 226.9 308.213 227.27 308.153 227.67C308.093 228.07 307.933 228.4 307.793 228.38C307.653 228.36 307.583 228.01 307.633 227.6C307.683 227.19 307.863 226.84 308.003 226.9Z" fill="#455A64"/>
<path d="M285.504 375.97L313.864 376.43L313.644 371.7L285.504 371.85V375.97Z" fill="#455A64"/>
<path d="M304.104 198.71C304.204 199.065 304.261 199.431 304.274 199.8C304.344 200.51 304.444 201.53 304.544 202.8C304.744 205.33 304.994 208.8 305.224 212.68C305.344 214.6 305.444 216.44 305.544 218.12C305.527 219.586 305.702 221.049 306.064 222.47C306.359 223.398 307.01 224.171 307.874 224.62C308.199 224.747 308.533 224.847 308.874 224.92C308.779 224.943 308.679 224.943 308.584 224.92C308.304 224.92 308.026 224.869 307.764 224.77C307.284 224.564 306.852 224.261 306.495 223.881C306.137 223.501 305.861 223.051 305.684 222.56C305.261 221.114 305.043 219.616 305.034 218.11C304.924 216.43 304.804 214.59 304.684 212.67C304.444 208.81 304.254 205.32 304.144 202.79C304.084 201.52 304.054 200.5 304.044 199.79C304.015 199.429 304.035 199.066 304.104 198.71Z" fill="#455A64"/>
<path d="M306.854 201.08C306.854 201.15 306.634 201.33 306.604 201.75C306.596 201.86 306.611 201.971 306.647 202.076C306.683 202.181 306.74 202.277 306.814 202.36C306.909 202.441 307.025 202.494 307.149 202.512C307.273 202.529 307.4 202.511 307.514 202.46C307.633 202.418 307.738 202.344 307.816 202.244C307.894 202.145 307.942 202.026 307.954 201.9C307.949 201.789 307.922 201.681 307.874 201.581C307.826 201.481 307.758 201.392 307.674 201.32C307.364 201.03 307.044 201.09 307.034 201.01C307.024 200.93 307.364 200.71 307.894 201.01C308.044 201.104 308.171 201.231 308.265 201.382C308.359 201.533 308.416 201.703 308.434 201.88C308.434 202.112 308.364 202.338 308.234 202.53C308.104 202.722 307.92 202.871 307.705 202.957C307.489 203.043 307.253 203.063 307.027 203.013C306.8 202.964 306.594 202.848 306.434 202.68C306.32 202.543 306.241 202.38 306.203 202.207C306.165 202.033 306.168 201.852 306.214 201.68C306.414 201.1 306.854 201.02 306.854 201.08Z" fill="#455A64"/>
<path d="M332.094 205.32C331.427 205.774 330.663 206.065 329.864 206.17C327.939 206.558 325.942 206.335 324.149 205.534C322.357 204.733 320.859 203.393 319.864 201.7C319.406 201.035 319.111 200.271 319.004 199.47C319.094 199.47 319.364 200.31 320.174 201.47C321.199 203.031 322.65 204.267 324.354 205.031C326.059 205.794 327.946 206.054 329.794 205.78C331.194 205.61 332.064 205.24 332.094 205.32Z" fill="#455A64"/>
<path d="M287.494 198.71C287.625 199.355 287.591 200.022 287.394 200.65C287.031 202.201 286.192 203.6 284.994 204.65C283.788 205.702 282.285 206.352 280.694 206.51C280.047 206.622 279.383 206.567 278.764 206.35C278.764 206.26 279.514 206.35 280.654 206.14C282.135 205.894 283.519 205.243 284.654 204.26C285.771 203.258 286.597 201.973 287.044 200.54C287.384 199.45 287.404 198.71 287.494 198.71Z" fill="#455A64"/>
<path d="M283.503 121.04C283.503 121.04 256.783 132.34 255.933 131.91C255.083 131.48 254.483 109.96 254.483 109.96H241.193C241.193 109.96 238.673 141.88 246.683 146.96C257.633 153.96 284.143 139.4 284.143 139.4L283.503 121.04Z" fill="#FCD1B1"/>
<path d="M194.274 82.49L191.534 94.43L204.354 97.48C204.354 97.48 209.624 98.65 214.864 106.12C220.104 113.59 222.134 116.9 222.134 116.9L231.014 73.02L221.374 79.9C219.463 81.2437 217.34 82.2577 215.094 82.9C212.344 83.7 208.674 84.61 206.624 84.51C202.467 84.1101 198.342 83.4353 194.274 82.49Z" fill="#263238"/>
<path d="M338.124 133.42L222.134 116.9L231.014 73.02L343.794 100.22C345.008 100.512 346.067 101.253 346.757 102.293C347.447 103.334 347.718 104.598 347.514 105.83L343.704 129.31C343.485 130.583 342.782 131.722 341.741 132.489C340.701 133.255 339.405 133.589 338.124 133.42Z" fill="#62C7CB"/>
<path d="M183.924 83.0501C183.843 83.0355 183.761 83.0407 183.683 83.0653C183.605 83.09 183.535 83.1333 183.477 83.1915C183.42 83.2497 183.378 83.321 183.355 83.3992C183.332 83.4774 183.328 83.5601 183.344 83.6401C183.829 86.2354 184.467 88.7998 185.254 91.3201C185.524 92.0101 191.944 92.6301 191.944 92.6301L193.714 84.9201L183.924 83.0501Z" fill="#62C7CB"/>
<path d="M328.814 118.31L330.584 111.22L255.654 96.02L254.124 103.15L328.814 118.31Z" fill="#263238"/>
<path d="M314.254 118.07L297.694 116.74C297.584 114.81 297.694 107.33 297.694 107.33C297.694 107.33 290.804 106.26 290.694 99.3302C290.584 92.4002 291.804 76.6302 291.804 76.6302C295.716 74.9439 300.008 74.3329 304.236 74.8603C308.464 75.3877 312.475 77.0344 315.854 79.6302L316.854 80.4202L314.254 118.07Z" fill="#FCD1B1"/>
<path d="M293.444 88.5001C293.623 88.3181 293.725 88.0747 293.73 87.8198C293.735 87.5649 293.643 87.3176 293.471 87.1286C293.3 86.9396 293.063 86.8231 292.809 86.8029C292.555 86.7828 292.303 86.8604 292.104 87.0201C292.006 87.1083 291.926 87.2152 291.869 87.3346C291.812 87.454 291.779 87.5834 291.773 87.7155C291.766 87.8476 291.786 87.9796 291.831 88.104C291.876 88.2283 291.945 88.3426 292.034 88.4401C292.213 88.6345 292.462 88.75 292.727 88.7613C292.991 88.7725 293.249 88.6786 293.444 88.5001Z" fill="#263238"/>
<path d="M291.774 86.8999C291.884 87.0199 292.564 86.4999 293.504 86.4999C294.444 86.4999 295.144 86.9799 295.254 86.8599C295.364 86.7399 295.194 86.5899 294.894 86.3599C294.488 86.0721 294.002 85.9182 293.504 85.9199C293.004 85.925 292.519 86.0935 292.124 86.3999C291.824 86.6599 291.724 86.8999 291.774 86.8999Z" fill="#263238"/>
<path d="M302.703 87.7599C302.585 87.8258 302.482 87.9149 302.4 88.0217C302.317 88.1285 302.257 88.251 302.223 88.3816C302.19 88.5123 302.182 88.6484 302.203 88.7819C302.223 88.9153 302.27 89.0433 302.341 89.1582C302.412 89.273 302.505 89.3723 302.615 89.45C302.726 89.5278 302.851 89.5824 302.983 89.6106C303.115 89.6388 303.251 89.64 303.383 89.6141C303.516 89.5882 303.642 89.5357 303.753 89.4599C303.978 89.3214 304.139 89.0996 304.201 88.8429C304.262 88.5863 304.22 88.3156 304.083 88.0899C304.015 87.9773 303.924 87.8794 303.818 87.8018C303.711 87.7242 303.59 87.6684 303.462 87.6378C303.334 87.6071 303.201 87.6021 303.07 87.6231C302.94 87.644 302.815 87.6905 302.703 87.7599Z" fill="#263238"/>
<path d="M302.084 87.77C302.184 87.89 302.864 87.37 303.814 87.36C304.764 87.35 305.454 87.85 305.554 87.73C305.654 87.61 305.504 87.46 305.204 87.23C304.798 86.935 304.306 86.7805 303.804 86.79C303.306 86.7964 302.823 86.961 302.424 87.26C302.134 87.5 302.024 87.72 302.084 87.77Z" fill="#263238"/>
<path d="M298.273 95.5901C297.785 95.3991 297.267 95.291 296.743 95.2701C296.493 95.2701 296.303 95.1901 296.283 95.0501C296.273 94.8023 296.332 94.5565 296.453 94.3401C296.703 93.7201 296.953 93.0801 297.213 92.4101C297.921 90.7816 298.463 89.0865 298.833 87.3501C297.961 88.8975 297.247 90.5291 296.703 92.2201C296.463 92.8901 296.223 93.5301 295.993 94.2201C295.842 94.5302 295.793 94.8804 295.853 95.2201C295.89 95.3136 295.949 95.3973 296.023 95.4649C296.098 95.5325 296.187 95.5822 296.283 95.6101C296.421 95.6456 296.561 95.6658 296.703 95.6701C297.227 95.7368 297.759 95.7097 298.273 95.5901Z" fill="#263238"/>
<path d="M301.354 96.64C302.354 96.05 298.634 98.09 296.704 97.99C297.032 98.4821 297.517 98.8487 298.08 99.0303C298.643 99.2119 299.25 99.1977 299.804 98.99C301.864 98.28 301.354 96.64 301.354 96.64Z" fill="white"/>
<path d="M297.714 107.23C300.901 107.296 304.035 106.408 306.714 104.68C306.714 104.68 304.594 109.68 297.714 109.02V107.23Z" fill="#EB996E"/>
<path d="M316.954 87.14C317.104 87.09 322.084 86.76 321.264 92.56C320.444 98.36 314.844 95.62 314.854 95.45C314.864 95.28 316.954 87.14 316.954 87.14Z" fill="#FCD1B1"/>
<path d="M316.923 93.66C316.923 93.66 317.013 93.75 317.173 93.85C317.286 93.9191 317.411 93.9654 317.541 93.986C317.672 94.0066 317.805 94.0011 317.933 93.97C318.343 93.7877 318.696 93.4982 318.954 93.1321C319.213 92.766 319.368 92.3369 319.403 91.89C319.487 91.394 319.463 90.8859 319.333 90.4C319.304 90.2117 319.23 90.0333 319.116 89.8801C319.003 89.7268 318.855 89.6033 318.683 89.52C318.571 89.4734 318.446 89.4669 318.33 89.5015C318.213 89.5361 318.112 89.6097 318.043 89.71C317.943 89.86 317.963 89.98 317.933 89.99C317.903 90 317.823 89.88 317.933 89.64C317.983 89.4994 318.083 89.382 318.213 89.31C318.391 89.2143 318.598 89.1893 318.793 89.24C319.018 89.3182 319.22 89.4502 319.382 89.6245C319.544 89.7988 319.661 90.0101 319.723 90.24C319.895 90.7792 319.937 91.3517 319.843 91.91C319.798 92.4323 319.6 92.9297 319.272 93.3391C318.945 93.7486 318.503 94.0516 318.003 94.21C317.841 94.2338 317.676 94.22 317.519 94.1698C317.363 94.1195 317.221 94.034 317.103 93.92C316.913 93.81 316.903 93.67 316.923 93.66Z" fill="#EB996E"/>
<path d="M291.874 76.4601C293.664 81.1901 300.524 83.0601 305.564 83.3401C303.234 81.2901 304.674 81.7201 303.234 80.2801C307.122 83.6436 312.093 85.4933 317.234 85.4901C317.62 84.322 317.767 83.0883 317.668 81.8621C317.569 80.6359 317.225 79.4421 316.656 78.3513C316.087 77.2604 315.305 76.2947 314.357 75.5113C313.408 74.7278 312.313 74.1426 311.134 73.7901C309.584 73.3201 307.934 73.2801 306.354 72.9101C305.024 72.6001 303.744 72.0701 302.354 71.9101C298.294 71.3101 291.704 70.2101 291.814 76.5001" fill="#263238"/>
<path d="M314.193 82.8999C314.453 83.5699 315.903 91.3899 315.903 91.3899L317.663 83.8499L314.193 82.8999Z" fill="#263238"/>
<path d="M363.444 179.61C366.107 176.548 367.566 172.623 367.552 168.565C367.537 164.507 366.049 160.593 363.364 157.55L336.624 127.23L329.464 147.23C329.954 147.55 350.284 169.35 350.284 169.35L332.814 191.13C331.487 192.781 330.601 194.741 330.237 196.827C329.873 198.913 330.044 201.058 330.734 203.06L335.404 214.49L348.194 208.76L347.194 207.27H337.604L337.034 204.97L363.444 179.61Z" fill="#FCD1B1"/>
<path d="M350.773 140.05L333.884 123.05C330.629 119.649 326.627 117.054 322.194 115.47C319.843 114.631 317.378 114.159 314.884 114.07C309.141 115.89 302.976 115.89 297.234 114.07C292.399 114.598 287.691 115.951 283.314 118.07L258.104 128.3L266.194 150.6L279.724 146.05L280.523 167.05L277.844 198.42L330.194 198.9L329.514 170.44V149.86L337.074 157.21L350.773 140.05Z" fill="#455A64"/>
</g>
<defs>
<clipPath id="clip0">
<rect width="436.64" height="384.16" fill="white" transform="translate(0.874023)"/>
</clipPath>
</defs>
</svg>
