<svg width="229" height="357" viewBox="0 0 229 357" fill="none" xmlns="http://www.w3.org/2000/svg">
<path d="M22.3255 356.161L18.1567 355.37L36.2736 259.855L40.4423 260.646L22.3255 356.161Z" fill="#537470"/>
<path d="M215.141 356.513H220.15L201.465 259.755L197.302 260.548L215.141 356.513Z" fill="#537470"/>
<path d="M68.7643 356.513H73.7734L55.0892 259.755L50.926 260.548L68.7643 356.513Z" fill="#537470"/>
<path d="M169.453 356.513L165.383 356.566L183.301 260.188L187.464 260.98L169.453 356.513Z" fill="#263236"/>
<path d="M97.3067 50.0581C75.0521 52.4428 46.2498 54.954 17.3342 104.013C-14.2658 157.641 2.36685 237.746 27.3258 260.008C52.2847 282.269 133.729 309.752 202.212 268.6C202.212 268.6 243.557 243.668 222.335 202.283C189.695 138.597 194.292 125.315 179.704 100.369C165.116 75.4233 144.547 45.0024 97.3067 50.0581Z" fill="#CE935E"/>
<path d="M17.3341 104.027C37.0708 70.5348 56.7542 58.7314 74.3327 53.8555C67.5317 60.8962 60.6376 69.9486 53.7368 81.6653C22.1368 135.293 38.7694 215.399 63.7283 237.66C85.843 257.397 152.414 281.244 214.934 257.69C211.185 261.878 206.898 265.552 202.185 268.614C133.703 309.766 52.238 282.283 27.299 260.022C2.36008 237.76 -14.2659 157.655 17.3341 104.027Z" fill="#8E6139"/>
<path d="M168.76 131.569L174.481 148.735L157.043 141.874L168.76 131.569Z" fill="#F79C8D"/>
<path d="M150.788 80.5059C151.947 80.5591 155.131 81.6182 159.794 90.3908C165.736 101.595 174.448 135.433 174.448 135.433L148.47 145.058L145.14 137.997L139.651 83.6233C139.651 83.6233 150.462 80.5059 150.788 80.5059Z" fill="#2A819E"/>
<path d="M116.491 75.623C123.911 75.623 142.269 77.7945 150.789 80.5056C150.789 80.5056 157.043 134.12 145.153 174.859C142.489 183.978 147.351 212.667 147.351 212.667L70.4763 211.655C70.4763 211.655 79.5819 142.307 76.1515 131.103C72.721 119.899 72.6345 80.8653 72.6345 80.8653C72.6345 80.8653 73.1673 80.7853 89.9132 77.9011C98.7016 76.4668 107.587 75.7053 116.491 75.623Z" fill="#2A819E"/>
<path d="M107.532 312.177C107.532 312.177 109.23 331.74 112.361 337.162C115.491 342.584 112.194 351.817 112.028 353.056C111.861 354.295 105.447 356.126 95.2419 355.054C85.0371 353.981 85.2037 351.623 86.023 347.827C86.8423 344.03 92.2777 339.167 92.6108 335.55C92.9438 331.933 89.48 318.938 89.48 318.938L107.532 312.177Z" fill="#FCD1B1"/>
<path d="M138.679 196.521C138.679 196.521 191.754 193.583 203.604 200.737C215.454 207.891 201.459 222.579 201.459 222.579C201.459 222.579 158.255 241.296 85.9231 245.459C68.7909 246.445 67.3188 200.95 70.5161 197.18C73.7134 193.41 138.679 196.521 138.679 196.521Z" fill="#6892A5"/>
<path d="M93.9699 356.56C83.4587 355.441 84.7644 350.298 85.6103 346.395C86.1365 343.95 89.154 341.066 90.9391 338.342C91.8784 339.088 93.4037 340.4 97.9665 341.746C102.709 343.138 109.204 340.413 113.34 338.648C114.419 343.067 114.891 347.611 114.746 352.157C114.593 353.462 104.474 357.672 93.9699 356.56Z" fill="#263236"/>
<path d="M99.7717 234.376C101.89 250.362 112.388 329.969 112.388 329.969L88.0149 332.959C88.0149 332.959 58.0402 229.047 59.5989 213.167C61.1576 197.287 72.3482 195.942 72.3482 195.942C72.3482 195.942 94.1564 192.032 99.7717 234.376Z" fill="#ABBFC8"/>
<path d="M71.8018 86.8272C78.9891 84.1627 82.5061 148.688 83.472 175.253C96.2012 176.472 118.389 175.253 123.918 174.846C126.516 174.653 132.504 172.468 135.088 172.129C137.673 171.789 140.137 171.602 141.436 171.829C141.916 171.915 155.185 177.324 156.317 178.49C157.729 179.955 161.533 183.665 160.893 185.271C160.254 186.876 153.566 180.801 153.566 180.801L150.302 178.976C154.365 182.933 162.112 188.142 161 190.04C159.887 191.938 152.92 186.603 147.938 182.999C152.207 186.843 157.516 193.724 156.297 194.803C155.198 195.762 149.157 187.795 142.709 185.477C140.317 184.625 137.933 186.983 136.048 187.262C134.662 187.476 132.531 187.929 131.172 187.536L124.184 185.537C121.806 185.757 121.746 187.156 119.342 187.669C116.551 188.262 111.975 188.881 108.424 189.747C87.9615 194.729 81.1139 197.074 74.8725 197.074C55.9152 197.074 54.8095 93.1618 71.8018 86.8272Z" fill="#FCD1B1"/>
<path d="M58.1596 147.422C56.8274 120.211 57.0073 86.6664 72.3144 80.9446C78.3559 78.6865 89.0069 92.2684 87.0885 147.975C78.9154 148.647 66.9189 149.187 58.1596 147.422Z" fill="#2A819E"/>
<path d="M178.765 328.916C178.765 328.916 176.64 335.704 180.443 340.2C184.247 344.696 200.06 349.092 202.138 351.524C204.217 353.955 204.057 356.026 204.057 356.026L159.674 354.808L160.154 341.445L162.199 331.847L178.765 328.916Z" fill="#FCD1B1"/>
<path d="M183.201 342.438C183.201 342.438 171.798 347.034 166.289 344.31C160.78 341.586 160.96 340.84 159.355 341.852C157.749 342.864 157.19 356.506 157.19 356.506L207.101 356.846C210.572 356.766 212.33 354.215 209.506 352.037C207.778 350.821 205.958 349.741 204.064 348.806C200.16 346.588 183.201 342.438 183.201 342.438Z" fill="#263236"/>
<path d="M177.08 209.064C180.51 201.87 188.31 192.498 202.039 198.14C215.134 203.522 218.651 216.751 214.521 230.293C210.392 243.835 183.214 323.448 182.242 334.392L160.527 334.532C160.527 334.532 164.477 271.498 165.443 256.258C166.375 241.59 171.145 221.507 177.08 209.064Z" fill="#ABBFC8"/>
<path d="M212.33 135.732H139.724C138.786 135.733 137.868 136.012 137.089 136.535C136.31 137.058 135.704 137.801 135.348 138.67L112.994 193.177H72.9808C72.4508 193.177 71.9425 193.388 71.5677 193.763C71.193 194.137 70.9825 194.646 70.9825 195.176C70.9825 195.706 71.193 196.214 71.5677 196.589C71.9425 196.963 72.4508 197.174 72.9808 197.174H186.885C188.414 197.176 189.912 196.738 191.198 195.911C192.485 195.084 193.506 193.904 194.138 192.511L216.646 142.38C216.965 141.661 217.1 140.873 217.038 140.088C216.976 139.303 216.719 138.547 216.29 137.886C215.861 137.226 215.275 136.683 214.583 136.307C213.892 135.931 213.117 135.733 212.33 135.732Z" fill="#263236"/>
<path d="M173.276 167.472C172.79 169.923 170.651 171.562 168.506 171.129C166.362 170.696 165.023 168.371 165.509 165.92C165.995 163.469 168.173 161.837 170.285 162.263C172.397 162.689 173.742 165.027 173.276 167.472Z" fill="white"/>
<path d="M107.672 52.6422L104.115 76.0491C104.115 76.0491 117.09 103.919 124.83 101.501C131.325 99.5026 127.328 74.8168 127.328 74.8168C127.328 74.8168 123.791 61.568 124.85 54.9402C125.91 48.3125 107.672 52.6422 107.672 52.6422Z" fill="#FCD1B1"/>
<path opacity="0.2" d="M124.85 54.9402C125.91 48.3125 107.672 52.6422 107.672 52.6422L107.372 54.5805C107.84 55.7778 108.517 56.8828 109.37 57.8444C113.599 62.179 119.309 64.7576 125.357 65.065C124.757 61.488 124.417 57.6579 124.85 54.9402Z" fill="#F47458"/>
<path d="M104.667 19.5238C104.154 19.3372 100.537 46.1679 107.398 53.575C114.259 60.9821 127.641 63.3801 132.437 57.5717C137.766 51.1371 137.48 22.2682 126.802 14.6812C116.124 7.09431 104.667 19.5238 104.667 19.5238Z" fill="#FCD1B1"/>
<path d="M122.746 0.306545C116.772 1.59362 111.34 4.69201 107.192 9.1791C103.449 9.62539 98.3528 11.6903 93.0973 20.3963C86.6294 31.1006 91.4054 42.9572 98.9323 48.779C106.459 54.6007 106.353 61.3151 106.353 61.3151L107.545 57.838C108.437 55.2072 108.758 52.4162 108.484 49.6516C108.344 47.9561 107.932 46.2941 107.265 44.7291C105.46 40.8457 111.155 38.2612 112.754 35.0306C113.986 32.5394 114.046 26.8442 115.978 22.7343L118.296 19.5903C118.296 19.5903 123.625 15.4338 128.86 16.6061C134.096 17.7785 133.31 -1.85163 122.746 0.306545Z" fill="#F7CC7F"/>
<path d="M112.401 39.8072C112.454 43.0844 110.969 45.7622 109.07 45.8022C107.172 45.8421 105.6 43.2043 105.547 39.9337C105.493 36.6632 106.979 33.9721 108.877 33.9388C110.776 33.9055 112.348 36.5433 112.401 39.8072Z" fill="#FABE9F"/>
<path d="M121.673 48.8855L132.018 48.3525C132.018 48.3525 132.017 52.2959 127.441 52.6622C121.899 53.1085 121.673 48.8855 121.673 48.8855Z" fill="white"/>
</svg>
