<svg width="129" height="120" viewBox="0 0 129 120" fill="none" xmlns="http://www.w3.org/2000/svg">
<ellipse cx="69.5821" cy="59.8026" rx="27.6474" ry="56.5584" transform="rotate(44.6538 69.5821 59.8026)" fill="url(#paint0_linear)"/>
<path d="M40.5602 66.9199V76.9999H1.20021V65.9599C1.20021 63.0266 1.62688 60.5199 2.48021 58.4399C3.38688 56.3599 4.64022 54.5999 6.24022 53.1599C7.89355 51.7199 9.86688 50.5466 12.1602 49.6399C14.4535 48.6799 17.0402 47.8799 19.9202 47.2399C22.0535 46.7599 23.7869 46.2266 25.1202 45.6399C26.5069 44.9999 27.6002 44.3065 28.4002 43.5599C29.2002 42.7599 29.7335 41.9066 30.0002 40.9999C30.3202 40.0399 30.4802 38.9732 30.4802 37.7999C30.4802 35.5599 29.6535 33.6932 28.0002 32.1999C26.4002 30.7066 24.1602 29.9599 21.2802 29.9599C18.2402 29.9599 15.8135 30.8932 14.0002 32.7599C12.1869 34.5732 11.2802 37.1065 11.2802 40.3599V43.8799H0.720215V39.3999C0.720215 36.7865 1.17355 34.3066 2.08021 31.9599C3.04022 29.5599 4.37355 27.4799 6.08021 25.7199C7.84021 23.9066 9.97355 22.4932 12.4802 21.4799C14.9869 20.4132 17.8136 19.8799 20.9602 19.8799C24.3202 19.8799 27.2535 20.3865 29.7602 21.3999C32.2669 22.3599 34.3469 23.6399 36.0002 25.2399C37.7069 26.8399 38.9602 28.7065 39.7602 30.8399C40.6135 32.9199 41.0402 35.0799 41.0402 37.3199V38.2799C41.0402 42.9732 39.7069 46.8666 37.0402 49.9599C34.4269 53.0532 30.1336 55.2932 24.1602 56.6799C21.6535 57.2666 19.5735 57.8799 17.9202 58.5199C16.3202 59.1066 15.0669 59.7732 14.1602 60.5199C13.2535 61.2666 12.6135 62.0932 12.2402 62.9999C11.9202 63.8532 11.7602 64.8399 11.7602 65.9599V66.9199H40.5602Z" fill="#40545C"/>
<path d="M50.2646 52.0399V20.9999H87.7046V31.0799H60.8246V46.2799H62.2646C63.0113 44.1999 64.3979 42.4132 66.4246 40.9199C68.5046 39.3732 71.2779 38.5999 74.7446 38.5999C77.3579 38.5999 79.7046 39.0532 81.7846 39.9599C83.8646 40.8666 85.6246 42.1199 87.0646 43.7199C88.5046 45.3199 89.5979 47.2399 90.3446 49.4799C91.1446 51.7199 91.5446 54.1732 91.5446 56.8399V57.3199C91.5446 60.1466 91.0646 62.8132 90.1046 65.3199C89.1979 67.8266 87.8379 70.0399 86.0246 71.9599C84.2646 73.8265 82.0779 75.3199 79.4646 76.4399C76.8513 77.5599 73.8379 78.1199 70.4246 78.1199C67.0113 78.1199 63.9979 77.6666 61.3846 76.7599C58.7713 75.7999 56.5579 74.4932 54.7446 72.8399C52.9846 71.1332 51.6246 69.1332 50.6646 66.8399C49.7579 64.4932 49.3046 61.9599 49.3046 59.2399V57.3199H59.8646V58.2799C59.8646 61.1066 60.7179 63.4532 62.4246 65.3199C64.1846 67.1332 66.7446 68.0399 70.1046 68.0399C73.4646 68.0399 76.1046 67.1332 78.0246 65.3199C79.9979 63.5066 80.9846 60.9999 80.9846 57.7999C80.9846 54.7599 80.2646 52.4932 78.8246 50.9999C77.3846 49.4532 75.4913 48.6799 73.1446 48.6799C71.5979 48.6799 70.3446 49.0266 69.3846 49.7199C68.4246 50.3599 67.8112 51.1332 67.5446 52.0399H50.2646Z" fill="#40545C"/>
<defs>
<linearGradient id="paint0_linear" x1="98.2155" y1="116.361" x2="28.2315" y2="106.007" gradientUnits="userSpaceOnUse">
<stop stop-color="#A2CCC7"/>
<stop offset="1" stop-color="#E5E5E5"/>
</linearGradient>
</defs>
</svg>
