<svg width="100" height="101" viewBox="0 0 100 101" fill="none" xmlns="http://www.w3.org/2000/svg">
<g clip-path="url(#clip0)">
<path d="M49.9113 79.928C71.8396 79.928 89.616 62.1516 89.616 40.2233C89.616 18.295 71.8396 0.518555 49.9113 0.518555C27.983 0.518555 10.2065 18.295 10.2065 40.2233C10.2065 62.1516 27.983 79.928 49.9113 79.928Z" fill="#F3B456"/>
<path d="M17.7459 63.4521L4.08447 87.1333L20.0294 86.2868L27.2735 100.519L39.9112 78.6096C30.8561 76.2671 23.0805 70.8144 17.7459 63.4521Z" fill="#40545C"/>
<path d="M82.1556 63.334C76.8603 70.7159 69.0847 76.1883 60.0493 78.5702L72.7265 100.519L79.9706 86.2867L95.9155 87.1332L82.1556 63.334Z" fill="#40545C"/>
<path d="M49.9114 69.0024C65.8059 69.0024 78.6909 56.1174 78.6909 40.2229C78.6909 24.3284 65.8059 11.4434 49.9114 11.4434C34.0169 11.4434 21.1318 24.3284 21.1318 40.2229C21.1318 56.1174 34.0169 69.0024 49.9114 69.0024Z" fill="#FFD15C"/>
<path d="M67.4465 36.6375C68.2301 35.8713 67.7948 34.5306 66.7152 34.3739L56.6685 32.9113C56.2332 32.8416 55.8675 32.5805 55.676 32.18L51.1837 23.0735C50.6961 22.081 49.2857 22.081 48.7982 23.0735L44.3233 32.18C44.1318 32.563 43.7487 32.8416 43.3308 32.9113L33.2841 34.3739C32.2045 34.5306 31.7692 35.8713 32.5528 36.6375L39.8136 43.7242C40.127 44.0376 40.2663 44.4729 40.1966 44.8908L38.4903 54.8853C38.2987 55.9649 39.4479 56.8007 40.423 56.2783L49.4076 51.5596C49.7907 51.3507 50.2608 51.3507 50.6439 51.5596L59.6285 56.2783C60.6036 56.7832 61.7354 55.9649 61.5612 54.8853L59.8375 44.8908C59.7678 44.4555 59.9071 44.0202 60.2205 43.7242L67.4465 36.6375Z" fill="white"/>
</g>
<defs>
<clipPath id="clip0">
<rect width="100" height="100" fill="white" transform="translate(0 0.518555)"/>
</clipPath>
</defs>
</svg>
