<svg width="95" height="95" viewBox="0 0 95 95" fill="none" xmlns="http://www.w3.org/2000/svg">
<path d="M47.5 92.1116C35.4645 92.1116 26.0364 72.516 26.0364 47.5002C26.0364 22.4843 35.4645 2.88867 47.5 2.88867C59.5354 2.88867 68.9636 22.4843 68.9636 47.5002C68.9636 72.516 59.5354 92.1116 47.5 92.1116ZM47.5 4.81435C36.7264 4.81435 27.9621 23.9633 27.9621 47.5002C27.9621 71.037 36.7264 90.186 47.5 90.186C58.2735 90.186 67.0379 71.037 67.0379 47.5002C67.0379 23.9633 58.2735 4.81435 47.5 4.81435Z" fill="#40545C"/>
<path d="M24.596 76.5997C16.9459 76.5997 11.4244 74.2388 8.86579 69.8059C2.84741 59.3828 15.1037 41.4201 36.7675 28.9122C46.9839 23.0132 57.6855 19.3352 66.8992 18.5547C76.3697 17.7536 83.2033 20.1106 86.1341 25.1944C92.1525 35.6174 79.8962 53.5801 58.2324 66.088C48.016 71.987 37.3144 75.6651 28.1007 76.4456C26.8888 76.5483 25.7206 76.5997 24.596 76.5997ZM70.4271 20.325C69.3504 20.325 68.2271 20.3742 67.0571 20.4726C58.1194 21.2288 47.7028 24.8182 37.7252 30.5786C17.3477 42.3483 5.14667 59.5125 10.527 68.843C13.0676 73.2439 19.2477 75.262 27.9325 74.5276C36.8702 73.7715 47.2869 70.182 57.2644 64.4217C77.6522 52.652 89.8533 35.4878 84.4729 26.1572C82.2687 22.3495 77.3441 20.325 70.4322 20.325H70.4271Z" fill="#40545C"/>
<path d="M70.404 76.6002C69.2811 76.6002 68.1133 76.5488 66.9005 76.4461C57.6868 75.6656 46.9852 71.9876 36.7688 66.0886C15.1037 53.5807 2.8474 35.618 8.86578 25.1949C11.8018 20.1111 18.6315 17.749 28.1007 18.5552C37.3144 19.3357 48.0161 23.0138 58.2324 28.9128C79.8963 41.4207 92.1525 59.3834 86.1342 69.8064C83.5743 74.2393 78.054 76.6002 70.404 76.6002ZM24.5729 20.3255C17.661 20.3255 12.7364 22.35 10.5386 26.1578C5.14666 35.4883 17.3529 52.6525 37.7368 64.4222C47.7131 70.1826 58.131 73.772 67.0687 74.5282C75.7548 75.2625 81.9336 73.2444 84.4742 68.8436C89.8661 59.513 77.6599 42.3488 57.276 30.5791C47.2997 24.8188 36.8818 21.2293 27.9441 20.4732C26.7741 20.3747 25.6487 20.3255 24.5677 20.3255H24.5729Z" fill="#40545C"/>
<path d="M47.5 58.8936C45.2466 58.8936 43.0437 58.2254 41.1701 56.9734C39.2964 55.7215 37.8361 53.9421 36.9737 51.8602C36.1114 49.7782 35.8857 47.4874 36.3253 45.2772C36.765 43.0671 37.8501 41.037 39.4435 39.4436C41.0369 37.8501 43.0671 36.765 45.2772 36.3254C47.4874 35.8858 49.7782 36.1114 51.8601 36.9737C53.9421 37.8361 55.7215 39.2964 56.9734 41.1701C58.2254 43.0438 58.8936 45.2466 58.8936 47.5C58.8902 50.5207 57.6887 53.4168 55.5527 55.5527C53.4168 57.6887 50.5207 58.8902 47.5 58.8936ZM47.5 38.0321C45.6274 38.0321 43.7969 38.5874 42.2399 39.6278C40.6829 40.6681 39.4694 42.1468 38.7528 43.8768C38.0362 45.6068 37.8487 47.5105 38.214 49.3471C38.5793 51.1837 39.4811 52.8707 40.8052 54.1948C42.1293 55.5189 43.8163 56.4207 45.6529 56.786C47.4895 57.1513 49.3932 56.9638 51.1232 56.2472C52.8533 55.5306 54.3319 54.3171 55.3723 52.7601C56.4126 51.2031 56.9679 49.3726 56.9679 47.5C56.9649 44.9899 55.9664 42.5835 54.1915 40.8086C52.4165 39.0337 50.0101 38.0352 47.5 38.0321Z" fill="#40545C"/>
<path d="M15.9202 27.0591C19.0186 27.0591 21.5304 24.5474 21.5304 21.449C21.5304 18.3506 19.0186 15.8389 15.9202 15.8389C12.8218 15.8389 10.3101 18.3506 10.3101 21.449C10.3101 24.5474 12.8218 27.0591 15.9202 27.0591Z" fill="#CE935E"/>
<path d="M86.2279 38.4654C89.3262 38.4654 91.838 35.9537 91.838 32.8553C91.838 29.7569 89.3262 27.2451 86.2279 27.2451C83.1295 27.2451 80.6177 29.7569 80.6177 32.8553C80.6177 35.9537 83.1295 38.4654 86.2279 38.4654Z" fill="#27CCBC"/>
<path d="M38.3004 91.7466C41.3988 91.7466 43.9105 89.2349 43.9105 86.1365C43.9105 83.0381 41.3988 80.5264 38.3004 80.5264C35.202 80.5264 32.6903 83.0381 32.6903 86.1365C32.6903 89.2349 35.202 91.7466 38.3004 91.7466Z" fill="#FCD462"/>
<path d="M21.5291 21.4527C21.5274 22.4612 21.2549 23.4508 20.74 24.318C20.2251 25.1852 19.4867 25.8981 18.6021 26.3824C18.9842 25.6125 19.182 24.7642 19.1798 23.9047C19.1784 22.4172 18.5869 20.991 17.5351 19.9392C16.4833 18.8874 15.0571 18.2959 13.5696 18.2946C12.636 18.2896 11.7167 18.5238 10.8994 18.975C11.4571 17.8381 12.3836 16.9238 13.5278 16.3811C14.6719 15.8385 15.9662 15.6996 17.1994 15.9871C18.4327 16.2745 19.5321 16.9714 20.3184 17.964C21.1047 18.9566 21.5315 20.1864 21.5291 21.4527Z" fill="#8E6139"/>
<path d="M91.8419 32.8523C91.8427 33.8629 91.5698 34.8548 91.0522 35.7228C90.5345 36.5908 89.7915 37.3024 88.902 37.782C89.2842 37.0167 89.482 36.1726 89.4797 35.3172C89.4801 34.5803 89.3352 33.8507 89.0534 33.1699C88.7716 32.4891 88.3583 31.8705 87.8373 31.3495C87.3163 30.8284 86.6977 30.4152 86.0169 30.1334C85.3361 29.8516 84.6064 29.7067 83.8696 29.707C82.936 29.702 82.0167 29.9363 81.1993 30.3874C81.7561 29.249 82.6822 28.3327 83.8265 27.7882C84.9708 27.2436 86.2659 27.1028 87.5006 27.3887C88.7352 27.6747 89.8365 28.3705 90.625 29.3627C91.4134 30.3549 91.8423 31.585 91.8419 32.8523Z" fill="#21B3A9"/>
<path d="M43.9054 86.1421C43.9037 87.1507 43.6312 88.1402 43.1163 89.0074C42.6014 89.8746 41.8631 90.5876 40.9784 91.0719C41.3606 90.302 41.5584 89.4537 41.5561 88.5942C41.5547 87.1067 40.9632 85.6805 39.9114 84.6287C38.8596 83.5769 37.4334 82.9854 35.946 82.984C35.0128 82.9822 34.0942 83.2163 33.2757 83.6644C33.8334 82.5276 34.76 81.6132 35.9041 81.0706C37.0483 80.528 38.3425 80.389 39.5758 80.6765C40.809 80.964 41.9085 81.6608 42.6948 82.6534C43.4811 83.6461 43.9078 84.8758 43.9054 86.1421Z" fill="#F7BE56"/>
<path d="M15.9189 27.7003C14.6824 27.7003 13.4736 27.3337 12.4455 26.6467C11.4173 25.9597 10.616 24.9833 10.1428 23.8409C9.66961 22.6985 9.5458 21.4414 9.78703 20.2286C10.0283 19.0158 10.6237 17.9018 11.4981 17.0275C12.3724 16.1531 13.4864 15.5577 14.6992 15.3164C15.912 15.0752 17.1691 15.199 18.3115 15.6722C19.4539 16.1454 20.4303 16.9467 21.1173 17.9749C21.8043 19.003 22.171 20.2118 22.171 21.4483C22.1693 23.1059 21.51 24.6952 20.3379 25.8673C19.1658 27.0394 17.5765 27.6986 15.9189 27.7003ZM15.9189 16.4814C14.9363 16.4814 13.9757 16.7727 13.1587 17.3187C12.3417 17.8646 11.7049 18.6405 11.3289 19.5483C10.9528 20.4562 10.8544 21.4551 11.0461 22.4189C11.2379 23.3826 11.711 24.2679 12.4059 24.9627C13.1007 25.6575 13.9859 26.1307 14.9497 26.3224C15.9134 26.5141 16.9124 26.4157 17.8202 26.0397C18.728 25.6636 19.504 25.0268 20.0499 24.2098C20.5958 23.3928 20.8872 22.4322 20.8872 21.4496C20.8858 20.1324 20.3619 18.8695 19.4305 17.938C18.4991 17.0066 17.2362 16.4827 15.9189 16.4814Z" fill="#40545C"/>
<path d="M86.2279 39.105C84.9916 39.1048 83.7832 38.7379 82.7555 38.0509C81.7277 37.3639 80.9267 36.3876 80.4538 35.2454C79.9809 34.1032 79.8573 32.8465 80.0987 31.634C80.34 30.4216 80.9354 29.3079 81.8097 28.4339C82.6839 27.5598 83.7977 26.9646 85.0102 26.7235C86.2226 26.4824 87.4794 26.6063 88.6215 27.0795C89.7636 27.5526 90.7397 28.3538 91.4265 29.3817C92.1133 30.4096 92.4799 31.618 92.4799 32.8543C92.4778 34.5117 91.8184 36.1006 90.6464 37.2724C89.4743 38.4442 87.8853 39.1033 86.2279 39.105ZM86.2279 27.886C85.2456 27.8863 84.2855 28.1778 83.4688 28.7236C82.6522 29.2695 82.0158 30.0453 81.64 30.9528C81.2642 31.8603 81.166 32.8589 81.3577 33.8223C81.5494 34.7857 82.0224 35.6706 82.717 36.3651C83.4115 37.0597 84.2964 37.5327 85.2598 37.7244C86.2232 37.9161 87.2218 37.8179 88.1293 37.4421C89.0369 37.0663 89.8126 36.4299 90.3585 35.6133C90.9043 34.7967 91.1958 33.8365 91.1961 32.8543C91.1944 31.5372 90.6704 30.2747 89.739 29.3435C88.8076 28.4124 87.5449 27.8887 86.2279 27.8873V27.886Z" fill="#40545C"/>
<path d="M38.3004 92.3878C37.0634 92.3888 35.8539 92.0229 34.8249 91.3362C33.7959 90.6496 32.9938 89.6731 32.52 88.5304C32.0462 87.3877 31.922 86.1302 32.1632 84.9169C32.4044 83.7036 33.0001 82.5891 33.8749 81.7145C34.7497 80.8399 35.8643 80.2444 37.0776 80.0035C38.2909 79.7626 39.5485 79.887 40.6911 80.361C41.8337 80.8351 42.81 81.6374 43.4964 82.6665C44.1828 83.6956 44.5486 84.9052 44.5473 86.1422C44.5439 87.7978 43.8846 89.3847 42.7138 90.5552C41.543 91.7258 39.956 92.3848 38.3004 92.3878ZM38.3004 81.1689C37.3178 81.1678 36.3569 81.4582 35.5393 82.0033C34.7217 82.5484 34.0842 83.3237 33.7072 84.2311C33.3302 85.1385 33.2308 86.1374 33.4215 87.1013C33.6122 88.0653 34.0845 88.951 34.7786 89.6465C35.4727 90.3421 36.3574 90.8162 37.321 91.0089C38.2845 91.2016 39.2836 91.1042 40.1918 90.7291C41.1 90.354 41.8766 89.718 42.4234 88.9016C42.9701 88.0851 43.2625 87.1249 43.2635 86.1422C43.2635 84.825 42.7409 83.5615 41.8105 82.6292C40.88 81.6968 39.6176 81.1716 38.3004 81.1689Z" fill="#40545C"/>
</svg>
