<svg width="126" height="126" viewBox="0 0 126 126" fill="none" xmlns="http://www.w3.org/2000/svg">
<path d="M57.9089 47.6416L73.1821 62.6935C73.2876 62.799 73.3844 62.9129 73.4716 63.034L68.5848 68.0059C68.4536 67.9253 68.3334 67.828 68.2273 67.7165L52.9711 52.6646L57.9089 47.6416Z" fill="#E1E6E9"/>
<path d="M68.5848 68.8573C68.4374 68.8574 68.2925 68.8193 68.1643 68.7466C67.9655 68.6291 67.7839 68.4847 67.6245 68.3176L52.3734 53.2725C52.2138 53.1128 52.1241 52.8963 52.1241 52.6706C52.1241 52.4448 52.2138 52.2283 52.3734 52.0687L57.3113 47.0457C57.478 46.8937 57.6921 46.8041 57.9174 46.792C58.1411 46.792 58.3558 46.8801 58.5151 47.0372L73.79 62.0891C73.9284 62.2278 74.0559 62.377 74.1714 62.5352C74.2901 62.6983 74.347 62.8982 74.332 63.0993C74.3171 63.3004 74.2312 63.4897 74.0897 63.6334L69.2029 68.6053C69.1222 68.6868 69.0258 68.7511 68.9196 68.7944C68.8134 68.8377 68.6995 68.8591 68.5848 68.8573ZM54.1732 52.6561L68.5423 66.8328L72.2882 63.0153L57.9106 48.8472L54.1732 52.6561Z" fill="#40545C"/>
<path d="M60.4799 19.5807C61.8542 19.3617 63.137 18.7535 64.1764 17.8281C65.2158 16.9028 65.9683 15.699 66.3448 14.3593C66.7214 13.0195 66.7061 11.5999 66.3009 10.2686C65.8958 8.93725 65.1176 7.74987 64.0586 6.84703C62.9996 5.94419 61.704 5.36368 60.3253 5.17424C58.9466 4.9848 57.5426 5.19435 56.2793 5.77809C55.016 6.36183 53.9464 7.29532 53.1971 8.46804C52.4479 9.64076 52.0503 11.0036 52.0515 12.3952C52.048 14.1571 52.6901 15.8593 53.8564 17.1798" fill="#27CCBC"/>
<path d="M71.694 13.989H71.648C71.5387 13.9888 71.4305 13.9662 71.3301 13.9226C71.2298 13.8791 71.1394 13.8155 71.0645 13.7358C70.9895 13.6561 70.9317 13.5619 70.8944 13.4591C70.8572 13.3563 70.8413 13.2469 70.8478 13.1377V13.0219C70.8631 12.8125 70.8767 12.603 70.8767 12.3902C70.8813 9.36859 69.6937 6.46716 67.5718 4.31598C67.4137 4.15454 67.3263 3.93692 67.3287 3.71101C67.3311 3.48509 67.4231 3.26938 67.5845 3.11132C67.746 2.95327 67.9636 2.86582 68.1895 2.86821C68.4154 2.87061 68.6312 2.96265 68.7892 3.12409C71.2268 5.59364 72.5913 8.92538 72.5862 12.3953C72.5862 12.6439 72.5709 12.8908 72.5539 13.136C72.5408 13.3591 72.4458 13.5695 72.2871 13.7269C72.1284 13.8844 71.9172 13.9777 71.694 13.989Z" fill="#40545C"/>
<path d="M70.7082 18.0476C70.591 18.0485 70.475 18.0247 70.3676 17.9778C70.2648 17.9339 70.1716 17.8703 70.0933 17.7904C70.015 17.7106 69.9533 17.6161 69.9115 17.5124C69.8698 17.4086 69.8489 17.2977 69.85 17.1859C69.8511 17.0741 69.8743 16.9636 69.9181 16.8608L70.039 16.5952C70.0884 16.4879 70.1412 16.3789 70.182 16.2665C70.2649 16.0623 70.4238 15.8981 70.6253 15.8086C70.8268 15.7192 71.0551 15.7113 71.2622 15.7868C71.4694 15.8622 71.6392 16.015 71.7359 16.2131C71.8326 16.4112 71.8488 16.6391 71.7809 16.8489C71.723 17.0089 71.6532 17.1639 71.58 17.3171L71.4829 17.5316C71.4178 17.6836 71.3099 17.8132 71.1723 17.9049C71.0347 17.9965 70.8734 18.0461 70.7082 18.0476Z" fill="#40545C"/>
<path d="M90.4323 93.6483C90.2181 93.649 90.0115 93.569 89.8537 93.4241C89.6959 93.2793 89.5985 93.0802 89.5809 92.8668L89.5026 91.9098C89.4842 91.685 89.5558 91.462 89.7017 91.2899C89.8476 91.1179 90.0559 91.0107 90.2807 90.9921C90.3922 90.983 90.5044 90.9959 90.6108 91.0302C90.7173 91.0645 90.8159 91.1194 90.9012 91.1918C90.9864 91.2643 91.0565 91.3528 91.1075 91.4523C91.1585 91.5518 91.1894 91.6604 91.1985 91.7719L91.2768 92.7305C91.2952 92.9554 91.2235 93.1783 91.0776 93.3504C90.9317 93.5225 90.7235 93.6296 90.4987 93.6483H90.4323Z" fill="#40545C"/>
<path d="M91.4999 106.739C91.2857 106.74 91.0791 106.659 90.9213 106.515C90.7635 106.37 90.6661 106.171 90.6486 105.957L89.8245 95.8483C89.8061 95.6235 89.8777 95.4005 90.0236 95.2284C90.1695 95.0563 90.3778 94.9492 90.6026 94.9305C90.7141 94.9215 90.8263 94.9344 90.9327 94.9687C91.0392 95.003 91.1378 95.0579 91.2231 95.1303C91.3083 95.2027 91.3784 95.2912 91.4294 95.3908C91.4804 95.4903 91.5113 95.5989 91.5204 95.7104L92.3445 105.821C92.3628 106.046 92.2912 106.269 92.1453 106.441C91.9994 106.613 91.7912 106.72 91.5663 106.739H91.4999Z" fill="#40545C"/>
<path d="M48.9526 29.8146L54.1629 16.3803C54.5141 15.5264 55.1862 14.8443 56.0348 14.4805C56.8834 14.1168 57.8408 14.1003 58.7014 14.4348C59.562 14.7692 60.2571 15.4278 60.6374 16.2691C61.0177 17.1105 61.0529 18.0674 60.7353 18.9343L55.3378 32.8625L48.9526 29.8146Z" fill="#E1E6E9"/>
<path d="M55.3378 33.7132C55.2105 33.7132 55.0849 33.6847 54.9701 33.6297L48.5849 30.5819C48.3914 30.4892 48.2401 30.3268 48.1611 30.1273C48.0822 29.9278 48.0815 29.7058 48.1592 29.5058L53.3695 16.0715C53.5776 15.5357 53.8891 15.0462 54.2864 14.6308C54.6836 14.2155 55.1588 13.8825 55.6847 13.6507C56.2107 13.419 56.7771 13.2932 57.3517 13.2804C57.9263 13.2676 58.4978 13.3681 59.0336 13.5761C59.5693 13.7842 60.0588 14.0958 60.4742 14.493C60.8895 14.8902 61.2226 15.3654 61.4543 15.8914C61.686 16.4173 61.8118 16.9838 61.8246 17.5584C61.8374 18.133 61.7369 18.7044 61.5289 19.2402L56.1313 33.1683C56.0692 33.3282 55.9602 33.4657 55.8186 33.5626C55.677 33.6595 55.5094 33.7114 55.3378 33.7115V33.7132ZM50.0322 29.3849L54.8764 31.6972L59.9351 18.6255C60.0778 18.2955 60.1525 17.94 60.1547 17.5805C60.1569 17.2209 60.0866 16.8646 59.948 16.5328C59.8093 16.2011 59.6053 15.9007 59.3479 15.6495C59.0905 15.3984 58.7852 15.2018 58.4501 15.0714C58.1151 14.9409 57.7571 14.8794 57.3977 14.8904C57.0383 14.9014 56.6849 14.9848 56.3584 15.1355C56.032 15.2863 55.7393 15.5013 55.4978 15.7677C55.2563 16.0341 55.071 16.3465 54.953 16.6861L50.0322 29.3849Z" fill="#40545C"/>
<path d="M35.5014 45.9553C36.4706 48.7325 38.4053 51.069 40.9529 52.5392C43.5005 54.0095 46.4915 54.5156 49.381 53.9654C52.2705 53.4151 54.8661 51.8452 56.6951 49.5415C58.5241 47.2379 59.4646 44.3539 59.3454 41.4149C59.2261 38.4759 58.055 35.6775 56.0455 33.5296C54.0359 31.3817 51.3216 30.0272 48.397 29.7129C45.4724 29.3985 42.5322 30.1453 40.1121 31.8171C37.692 33.4889 35.953 35.9745 35.2119 38.821" fill="#CE935E"/>
<path d="M20.0749 37.0508L37.3063 39.06C37.7669 39.1125 38.2126 39.2553 38.6181 39.4801C39.0235 39.7049 39.3807 40.0074 39.6693 40.3702C39.9578 40.7331 40.1721 41.1493 40.2998 41.5949C40.4275 42.0406 40.4662 42.5071 40.4137 42.9677C40.3611 43.4283 40.2184 43.8741 39.9936 44.2795C39.7688 44.6849 39.4663 45.0421 39.1034 45.3307C38.7405 45.6192 38.3244 45.8335 37.8787 45.9612C37.4331 46.089 36.9666 46.1276 36.506 46.0751L19.7003 44.117L20.0749 37.0508Z" fill="#E1E6E9"/>
<path d="M36.8993 46.9471C36.7384 46.9472 36.5775 46.9387 36.4175 46.9215L19.6033 44.9634C19.3884 44.9382 19.1912 44.8321 19.0517 44.6667C18.9122 44.5013 18.841 44.289 18.8524 44.0729L19.227 37.0067C19.2331 36.8904 19.263 36.7766 19.3148 36.6724C19.3667 36.5681 19.4393 36.4756 19.5284 36.4005C19.6176 36.3264 19.7209 36.2709 19.8321 36.2376C19.9433 36.2042 20.06 36.1936 20.1754 36.2064L37.4067 38.2156C38.5184 38.344 39.5388 38.893 40.2585 39.7498C40.9783 40.6066 41.3429 41.7064 41.2776 42.8236C41.2122 43.9407 40.7219 44.9905 39.9071 45.7576C39.0924 46.5246 38.015 46.9509 36.8959 46.9488L36.8993 46.9471ZM20.5943 43.3714L36.5997 45.2444C37.3062 45.3249 38.0158 45.1221 38.573 44.6804C39.1303 44.2387 39.4897 43.5941 39.5726 42.8878C39.6456 42.1814 39.4383 41.4746 38.9953 40.9195C38.5523 40.3645 37.9091 40.0055 37.2041 39.92L20.8701 38.0147L20.5943 43.3714Z" fill="#40545C"/>
<path d="M13.5399 47.5337C17.5638 47.5337 20.8258 44.2717 20.8258 40.2478C20.8258 36.2239 17.5638 32.9619 13.5399 32.9619C9.51602 32.9619 6.25403 36.2239 6.25403 40.2478C6.25403 44.2717 9.51602 47.5337 13.5399 47.5337Z" fill="#FCD462"/>
<path d="M86.2044 106.986C87.6728 107.662 88.8748 108.807 89.6213 110.241C90.3678 111.675 90.6165 113.316 90.3281 114.906C90.0397 116.497 89.2307 117.947 88.0283 119.027C86.826 120.107 85.2985 120.757 83.6863 120.875C82.0741 120.992 80.4686 120.57 79.1225 119.675C77.7764 118.78 76.7661 117.463 76.2505 115.931C75.7349 114.399 75.7433 112.739 76.2744 111.212C76.8055 109.685 77.8291 108.378 79.1842 107.497" fill="#FCD462"/>
<path d="M59.3392 41.921C59.3387 44.8936 58.2569 47.7644 56.2957 49.9982C54.3345 52.2319 51.6278 53.6761 48.6803 54.0613C51.0285 52.7178 52.8673 50.6364 53.9109 48.1404C54.9545 45.6444 55.1445 42.8736 54.4514 40.2585C53.7583 37.6435 52.2209 35.3305 50.0781 33.679C47.9353 32.0275 45.307 31.13 42.6016 31.1259C42.0771 31.1226 41.5532 31.1625 41.0352 31.2451C42.8695 30.1929 44.948 29.6409 47.0627 29.6445C50.3182 29.6459 53.44 30.9397 55.742 33.2417C58.044 35.5437 59.3379 38.6655 59.3392 41.921Z" fill="#8E6139"/>
<path d="M66.6268 12.3956C66.6252 13.6857 66.2806 14.9521 65.6283 16.0651C64.9761 17.1782 64.0396 18.0978 62.9149 18.7297C63.4006 17.7509 63.6513 16.6723 63.6471 15.5797C63.6467 14.3072 63.3133 13.057 62.6799 11.9533C62.0465 10.8497 61.1353 9.93105 60.0368 9.28881C58.9383 8.64658 57.6908 8.3031 56.4183 8.29253C55.1459 8.28196 53.8928 8.60468 52.7838 9.22858C53.5001 7.74204 54.7001 6.54284 56.1871 5.82743C57.674 5.11203 59.3599 4.92283 60.9685 5.29085C62.577 5.65886 64.0129 6.56226 65.0409 7.85304C66.0689 9.14383 66.6281 10.7455 66.6268 12.3956Z" fill="#21B3A9"/>
<path d="M20.824 40.2524C20.8283 41.5436 20.4862 42.8124 19.8333 43.9265C19.1805 45.0405 18.2408 45.9591 17.1122 46.5864C17.5998 45.6083 17.8506 44.5293 17.8443 43.4364C17.8448 42.4793 17.6566 41.5314 17.2905 40.6471C16.9244 39.7627 16.3876 38.9591 15.7108 38.2823C15.034 37.6055 14.2305 37.0688 13.3461 36.7027C12.4617 36.3366 11.5139 36.1484 10.5568 36.1489C9.30156 36.1453 8.06783 36.4743 6.98108 37.1024C7.69334 35.6125 8.89113 34.4092 10.3777 33.6901C11.8643 32.971 13.5512 32.7789 15.1614 33.1453C16.7716 33.5117 18.2093 34.4148 19.2384 35.7064C20.2674 36.9979 20.8266 38.601 20.824 40.2524Z" fill="#F7BE56"/>
<path d="M86.7527 119.955C87.2002 119.02 87.4437 118.001 87.4672 116.964C87.4907 115.928 87.2936 114.899 86.8889 113.945C86.1865 112.274 84.879 110.93 83.2281 110.182L76.5024 110.675C77.059 109.372 77.9968 108.268 79.1927 107.508L86.2078 106.98C87.4264 107.543 88.4662 108.431 89.213 109.546C89.9599 110.661 90.3848 111.96 90.4411 113.301C90.4974 114.642 90.183 115.973 89.5322 117.147C88.8815 118.321 87.9198 119.292 86.7527 119.955Z" fill="#F7BE56"/>
<path d="M47.0628 55.0312C44.3426 55.0325 41.6897 54.1858 39.4732 52.6089C37.2567 51.0321 35.5868 48.8035 34.696 46.2333C34.6292 46.0217 34.6477 45.7924 34.7475 45.5942C34.8473 45.396 35.0205 45.2446 35.2303 45.1722C35.44 45.0999 35.6698 45.1123 35.8705 45.2068C36.0713 45.3013 36.2272 45.4705 36.3051 45.6782C37.2071 48.2626 39.0074 50.437 41.3782 51.8053C43.7489 53.1735 46.5323 53.6446 49.2213 53.1326C51.9103 52.6206 54.3258 51.1598 56.028 49.0161C57.7301 46.8724 58.6055 44.1886 58.4947 41.4536C58.3839 38.7185 57.2943 36.1143 55.4243 34.1154C53.5543 32.1164 51.0285 30.8557 48.3069 30.5629C45.5854 30.2702 42.8492 30.9648 40.5969 32.5204C38.3446 34.0759 36.726 36.3888 36.0361 39.0377C35.9796 39.2565 35.8386 39.4439 35.6439 39.5587C35.4493 39.6735 35.2171 39.7063 34.9983 39.6498C34.7795 39.5934 34.5921 39.4523 34.4773 39.2577C34.3625 39.0631 34.3297 38.8308 34.3861 38.612C35.0047 36.2401 36.2758 34.0891 38.0552 32.4032C39.8345 30.7172 42.0509 29.5639 44.4527 29.074C46.8545 28.5842 49.3455 28.7775 51.643 29.632C53.9405 30.4864 55.9524 31.9679 57.4504 33.9081C58.9484 35.8484 59.8725 38.1697 60.1177 40.6087C60.363 43.0476 59.9196 45.5065 58.8378 47.7061C57.7561 49.9057 56.0794 51.7581 53.998 53.0529C51.9167 54.3477 49.514 55.033 47.0628 55.0312Z" fill="#40545C"/>
<path d="M60.4784 20.4323C60.2642 20.4318 60.058 20.3505 59.9011 20.2048C59.7441 20.059 59.6479 19.8594 59.6316 19.6459C59.6152 19.4323 59.68 19.2204 59.813 19.0525C59.946 18.8845 60.1373 18.7729 60.349 18.7398C61.5624 18.5459 62.6949 18.0084 63.6124 17.1909C64.5299 16.3734 65.194 15.3102 65.526 14.127C65.8581 12.9439 65.8442 11.6904 65.486 10.5149C65.1279 9.33938 64.4404 8.29111 63.5051 7.49413C62.5697 6.69715 61.4256 6.18485 60.2081 6.01785C58.9907 5.85085 57.7509 6.03616 56.6354 6.55183C55.52 7.0675 54.5757 7.89195 53.9142 8.92759C53.2528 9.96323 52.9019 11.1667 52.9031 12.3956C52.9003 13.9483 53.4632 15.4488 54.4866 16.6166C54.5637 16.6999 54.6233 16.7978 54.662 16.9045C54.7007 17.0113 54.7176 17.1247 54.7118 17.238C54.7061 17.3514 54.6777 17.4625 54.6283 17.5647C54.579 17.667 54.5097 17.7583 54.4245 17.8334C54.3393 17.9084 54.24 17.9657 54.1324 18.0018C54.0248 18.0379 53.911 18.0521 53.7978 18.0436C53.6846 18.0351 53.5742 18.0041 53.4732 17.9523C53.3722 17.9005 53.2825 17.829 53.2095 17.742C52.347 16.7513 51.7373 15.5664 51.4325 14.2886C51.1278 13.0108 51.137 11.6783 51.4594 10.4049C51.7818 9.13146 52.4079 7.95509 53.284 6.97635C54.1602 5.99761 55.2603 5.24563 56.4904 4.78472C57.7205 4.32381 59.0439 4.16767 60.3475 4.32967C61.651 4.49167 62.896 4.96698 63.9758 5.71495C65.0557 6.46292 65.9383 7.46131 66.5482 8.62472C67.1582 9.78813 67.4772 11.082 67.4782 12.3956C67.4659 14.3282 66.7702 16.1941 65.5144 17.6631C64.2585 19.1321 62.5235 20.1094 60.6163 20.4221C60.5706 20.4291 60.5245 20.4325 60.4784 20.4323Z" fill="#40545C"/>
<path d="M13.5399 48.3862C11.9301 48.3866 10.3564 47.9095 9.01771 47.0154C7.67905 46.1213 6.6356 44.8503 6.01932 43.3631C5.40305 41.876 5.24163 40.2395 5.55548 38.6605C5.86932 37.0816 6.64435 35.6313 7.78253 34.4928C8.92071 33.3544 10.3709 32.5791 11.9498 32.2649C13.5286 31.9507 15.1652 32.1118 16.6525 32.7278C18.1397 33.3437 19.411 34.3869 20.3054 35.7254C21.1998 37.0639 21.6771 38.6375 21.6771 40.2473C21.6749 42.4049 20.8169 44.4735 19.2914 45.9993C17.7659 47.5251 15.6975 48.3835 13.5399 48.3862ZM13.5399 33.8128C12.2668 33.8125 11.0222 34.1897 9.96351 34.8968C8.90482 35.6039 8.07961 36.6091 7.59225 37.7852C7.1049 38.9613 6.9773 40.2556 7.22559 41.5043C7.47387 42.7529 8.0869 43.8999 8.98712 44.8001C9.88735 45.7003 11.0343 46.3134 12.283 46.5617C13.5317 46.8099 14.8259 46.6823 16.002 46.195C17.1782 45.7076 18.1834 44.8824 18.8904 43.8237C19.5975 42.765 19.9748 41.5204 19.9744 40.2473C19.9726 38.5413 19.2941 36.9057 18.0878 35.6994C16.8815 34.4931 15.2459 33.8146 13.5399 33.8128Z" fill="#40545C"/>
<path d="M83.1838 121.744C81.4276 121.75 79.7164 121.188 78.3062 120.141C76.8959 119.095 75.8625 117.62 75.3604 115.937C74.8582 114.254 74.9144 112.453 75.5205 110.805C76.1266 109.157 77.25 107.749 78.7227 106.792C78.9124 106.67 79.143 106.627 79.3638 106.675C79.5846 106.722 79.7775 106.855 79.9001 107.045C80.0227 107.235 80.065 107.465 80.0176 107.686C79.9701 107.907 79.837 108.1 79.6473 108.222C78.4515 109.002 77.549 110.157 77.0816 111.506C76.6142 112.855 76.6085 114.321 77.0654 115.674C77.5223 117.026 78.4159 118.188 79.6055 118.977C80.7952 119.766 82.2134 120.137 83.6371 120.032C85.0608 119.927 86.4091 119.352 87.4699 118.396C88.5308 117.441 89.2439 116.16 89.4971 114.755C89.7504 113.35 89.5294 111.901 88.8689 110.636C88.2084 109.37 87.1459 108.36 85.8485 107.764C85.6435 107.67 85.4846 107.497 85.4066 107.285C85.3287 107.073 85.3382 106.839 85.4331 106.634C85.5279 106.429 85.7003 106.27 85.9123 106.192C86.1243 106.114 86.3586 106.124 86.5637 106.218C88.2501 106.991 89.6217 108.317 90.4509 109.976C91.2802 111.636 91.5171 113.529 91.1225 115.341C90.7279 117.154 89.7255 118.777 88.2815 119.942C86.8375 121.106 85.0388 121.742 83.1838 121.744Z" fill="#40545C"/>
<path d="M84.9137 87.9619L86.6164 108.837C86.6955 109.767 86.4017 110.691 85.7998 111.405C85.1979 112.118 84.3371 112.564 83.4069 112.643C82.4766 112.722 81.553 112.428 80.8394 111.826C80.1257 111.224 79.6803 110.363 79.6013 109.433L77.8816 88.4216L84.9137 87.9619Z" fill="#E1E6E9"/>
<path d="M83.1158 113.514C82.0796 113.516 81.0765 113.149 80.2859 112.479C79.8444 112.11 79.4813 111.656 79.2181 111.144C78.9549 110.633 78.7969 110.073 78.7535 109.499L77.0338 88.4914C77.0245 88.3788 77.0377 88.2654 77.0727 88.1579C77.1078 88.0504 77.1638 87.9509 77.2377 87.8653C77.3116 87.7798 77.4017 87.7097 77.5029 87.6594C77.6042 87.609 77.7144 87.5793 77.8272 87.572L84.8594 87.1123C85.081 87.102 85.2982 87.1772 85.4661 87.3223C85.634 87.4673 85.7398 87.6713 85.7618 87.8921L87.4645 108.767C87.5607 109.924 87.1947 111.071 86.4466 111.958C85.6985 112.845 84.6293 113.399 83.4734 113.499C83.3542 113.509 83.235 113.514 83.1158 113.514ZM78.8012 89.2219L80.4494 109.37C80.4762 109.719 80.5728 110.06 80.7333 110.371C80.8939 110.683 81.1152 110.959 81.3842 111.183C81.7874 111.526 82.2833 111.74 82.8089 111.8C83.3344 111.86 83.8659 111.762 84.3357 111.519C84.8056 111.276 85.1927 110.899 85.4478 110.436C85.7029 109.973 85.8146 109.444 85.7686 108.917L84.134 88.8728L78.8012 89.2219Z" fill="#40545C"/>
<path d="M94.1935 72.9268C94.2824 73.5758 94.3279 74.2299 94.3297 74.8849C94.3345 78.155 93.1789 81.3206 91.0687 83.8186C88.9584 86.3166 86.0303 87.9849 82.8055 88.5266C79.5806 89.0683 76.2681 88.4483 73.4575 86.7769C70.6469 85.1054 68.5204 82.4911 67.4565 79.3989C66.3926 76.3068 66.4603 72.9374 67.6475 69.8905C68.8347 66.8436 71.0644 64.3167 73.9399 62.7595C76.8154 61.2023 80.1501 60.7157 83.3506 61.3865C86.5511 62.0572 89.4098 63.8418 91.4181 66.4225" fill="#CE935E"/>
<path d="M94.3297 74.8847C94.3263 78.1874 93.1391 81.3795 90.9836 83.8818C88.828 86.3842 85.8469 88.0309 82.5811 88.5233C84.7822 87.3505 86.6232 85.6013 87.9068 83.4629C89.1905 81.3244 89.8686 78.8772 89.8686 76.3831C89.8668 75.7224 89.8213 75.0626 89.7324 74.4079L86.94 67.9036C85.6547 66.2437 84.0051 64.9013 82.1186 63.9802C80.2321 63.0591 78.1591 62.5838 76.0597 62.5912C75.3757 62.5901 74.6927 62.6413 74.0165 62.7444C76.0174 61.6557 78.2599 61.0878 80.5378 61.0928C82.6377 61.0925 84.7099 61.5725 86.5958 62.4963C88.4816 63.42 90.1311 64.7629 91.4181 66.4223L94.1935 72.9266C94.2824 73.5755 94.3279 74.2297 94.3297 74.8847Z" fill="#8E6139"/>
<path d="M107.985 68.0229L91.6565 73.8291C91.2189 73.9924 90.7533 74.0672 90.2866 74.0492C89.8199 74.0312 89.3614 73.9207 88.9377 73.7241C88.514 73.5275 88.1336 73.2488 87.8185 72.904C87.5034 72.5593 87.2599 72.1554 87.1021 71.7158C86.9443 71.2763 86.8754 70.8097 86.8993 70.3433C86.9232 69.8768 87.0395 69.4198 87.2414 68.9986C87.4433 68.5775 87.7268 68.2006 88.0755 67.8899C88.4242 67.5792 88.8311 67.3408 89.2727 67.1885L105.21 61.5186L107.985 68.0229Z" fill="#E1E6E9"/>
<path d="M90.4902 74.8803C89.4555 74.8904 88.4508 74.5333 87.6547 73.8725C86.8585 73.2116 86.3225 72.2898 86.1419 71.271C85.9614 70.2522 86.148 69.2023 86.6685 68.3081C87.1891 67.4139 88.0099 66.7333 88.985 66.3872L104.924 60.7155C105.128 60.6426 105.353 60.6505 105.552 60.7375C105.75 60.8245 105.908 60.9841 105.993 61.1837L108.769 67.6881C108.814 67.7949 108.837 67.9099 108.837 68.026C108.836 68.1422 108.812 68.2569 108.765 68.3633C108.719 68.4697 108.651 68.5654 108.566 68.6446C108.481 68.7238 108.381 68.7848 108.272 68.8238L91.946 74.6317C91.4783 74.7964 90.986 74.8805 90.4902 74.8803ZM104.742 62.5902L89.5622 67.9912C89.2298 68.1089 88.924 68.2915 88.6627 68.5284C88.4014 68.7653 88.1898 69.0518 88.0401 69.3711C87.8904 69.6905 87.8056 70.0364 87.7907 70.3887C87.7758 70.7411 87.831 71.093 87.9532 71.4238C88.2007 72.0863 88.6982 72.6252 89.3388 72.9248C89.9794 73.2244 90.7119 73.2607 91.379 73.0261L106.851 67.5246L104.742 62.5902Z" fill="#40545C"/>
<path d="M115.678 68.7724C119.288 66.9938 120.772 62.626 118.993 59.0166C117.215 55.4072 112.847 53.923 109.237 55.7015C105.628 57.4801 104.144 61.8479 105.922 65.4573C107.701 69.0667 112.069 70.5509 115.678 68.7724Z" fill="#27CCBC"/>
<path d="M116.056 68.6024C116.711 67.2359 116.924 65.6993 116.665 64.2062C116.406 62.7131 115.688 61.3379 114.611 60.272C113.534 59.2061 112.151 58.5025 110.655 58.2591C109.16 58.0157 107.625 58.2447 106.266 58.914C106.147 58.9821 106.01 59.0503 105.891 59.1184C106.385 58.0868 107.115 57.1859 108.021 56.4888C108.928 55.7916 109.986 55.3176 111.11 55.1052C112.234 54.8929 113.392 54.948 114.49 55.2663C115.589 55.5845 116.597 56.1569 117.433 56.9371C118.269 57.7173 118.91 58.6835 119.304 59.7573C119.697 60.8312 119.832 61.9826 119.698 63.1184C119.564 64.2542 119.165 65.3425 118.532 66.2952C117.899 67.2479 117.051 68.0383 116.056 68.6024Z" fill="#21B3A9"/>
<path d="M80.5379 89.5287C78.0525 89.5296 75.6077 88.898 73.4339 87.6932C71.26 86.4884 69.4286 84.7501 68.112 82.6421C66.7955 80.534 66.0372 78.1255 65.9086 75.6435C65.7799 73.1614 66.2851 70.6875 67.3766 68.4546C68.4681 66.2217 70.11 64.3034 72.1476 62.8803C74.1853 61.4572 76.5516 60.5761 79.0238 60.3201C81.4959 60.0641 83.9926 60.4415 86.2786 61.4168C88.5646 62.3922 90.5648 63.9333 92.0907 65.8952C92.1623 65.9831 92.2156 66.0844 92.2475 66.1932C92.2793 66.302 92.2892 66.4161 92.2764 66.5287C92.2636 66.6414 92.2284 66.7504 92.1729 66.8492C92.1175 66.9481 92.0428 67.0349 91.9533 67.1045C91.8638 67.1742 91.7614 67.2252 91.6519 67.2547C91.5424 67.2842 91.4282 67.2915 91.3158 67.2762C91.2035 67.261 91.0953 67.2234 90.9977 67.1658C90.9 67.1082 90.8149 67.0316 90.7473 66.9406C88.868 64.5245 86.1925 62.8533 83.1969 62.2243C80.2013 61.5954 77.0796 62.0494 74.3873 63.5056C71.6949 64.9618 69.6064 67.3258 68.4931 70.1771C67.3799 73.0285 67.3141 76.1823 68.3076 79.0775C69.301 81.9728 71.2892 84.4218 73.9186 85.9889C76.5479 87.5561 79.6479 88.1398 82.6671 87.6362C85.6864 87.1326 88.4291 85.5744 90.4075 83.2387C92.3859 80.903 93.4716 77.9413 93.4716 74.8803C93.4697 74.2635 93.427 73.6475 93.3439 73.0363C93.3235 72.9232 93.3262 72.8071 93.3518 72.695C93.3775 72.5829 93.4256 72.4772 93.4932 72.3843C93.5608 72.2913 93.6465 72.213 93.7452 72.154C93.8439 72.0951 93.9536 72.0568 94.0675 72.0414C94.1814 72.0259 94.2973 72.0338 94.4081 72.0643C94.5189 72.0949 94.6224 72.1476 94.7123 72.2193C94.8022 72.2909 94.8767 72.38 94.9312 72.4812C94.9857 72.5824 95.0192 72.6936 95.0296 72.8081C95.1267 73.4964 95.1773 74.1904 95.1811 74.8854C95.1766 78.7677 93.6324 82.4896 90.8872 85.2348C88.1421 87.9799 84.4201 89.5242 80.5379 89.5287Z" fill="#40545C"/>
<path d="M112.465 70.4092C111.013 70.4109 109.587 70.0242 108.335 69.2892C107.082 68.5541 106.049 67.4974 105.343 66.2287C104.637 64.96 104.282 63.5254 104.317 62.0737C104.352 60.6221 104.774 59.2061 105.541 57.9726C106.307 56.7392 107.389 55.7331 108.675 55.0588C109.961 54.3845 111.404 54.0665 112.855 54.1377C114.305 54.2089 115.71 54.6668 116.924 55.4639C118.138 56.2609 119.116 57.3681 119.758 58.6707C120.368 59.9113 120.651 61.2865 120.583 62.6671C120.514 64.0476 120.096 65.388 119.366 66.5621C118.637 67.7362 117.621 68.7054 116.413 69.3784C115.206 70.0514 113.847 70.4061 112.465 70.4092ZM112.453 55.8289C110.833 55.8311 109.273 56.4426 108.083 57.5419C106.893 58.6412 106.16 60.1479 106.03 61.7628C105.899 63.3776 106.381 64.9824 107.379 66.2585C108.378 67.5345 109.819 68.3883 111.418 68.6504C113.017 68.9125 114.656 68.5637 116.009 67.6732C117.362 66.7827 118.331 65.4157 118.723 63.8437C119.115 62.2718 118.902 60.6099 118.125 59.1881C117.348 57.7664 116.065 56.6888 114.531 56.1695C113.862 55.9417 113.16 55.8261 112.453 55.8272V55.8289Z" fill="#40545C"/>
</svg>
